ply
format ascii 1.0
element vertex 560
property float x
property float y
property float z
element face 1121
property list uchar int vertex_index
end_header
-981.605225 3949.241455 158.118805
-1327.757935 2807.724121 1059.402832
-1036.749878 3257.922363 944.593933
-1917.349609 3935.269287 616.754578
-1753.590332 4169.713867 157.967697
-1563.899292 4110.191406 296.201294
-871.054199 3794.032715 417.969391
-824.086914 3538.818359 667.162781
-2162.083740 2888.000488 1040.826416
-2919.139160 2599.630615 768.394409
-3123.584473 3096.072754 607.679199
-2856.903320 3624.514648 546.151550
-2524.479492 3951.404053 452.932861
-3341.808350 2673.807129 272.592804
-3361.639404 2653.039063 158.121384
-2638.745117 1544.499634 316.433563
-2655.610840 1518.453979 157.631760
-3251.611572 2255.701172 156.538895
-3219.580078 3478.591553 167.501038
-2951.743652 3794.320313 239.119812
-2578.104980 4039.775635 256.947845
-1982.138916 4157.882324 302.497894
-3173.542480 3359.746338 425.948608
-3341.004639 2964.921875 301.183655
-2480.099365 1759.131958 727.101807
-1918.389160 2255.914063 1091.803101
-2179.849365 1731.687256 763.136292
-2322.727051 1537.696655 474.983490
-2372.272949 1449.708008 153.132004
-1037.776123 3047.390137 -682.489502
-979.144104 3900.647705 -6.960548
-1735.437500 4109.849121 -133.621262
-825.448669 3538.765869 -350.914825
-915.965088 3237.905273 -574.057983
-1154.228149 3622.913330 -439.071167
-2072.241943 3378.524902 -613.449463
-2321.943359 2396.950439 -696.603455
-2900.306641 3333.073730 -354.021820
-3233.246582 3030.495117 -176.867111
-3130.519043 2614.910156 -290.953217
-2994.507080 2119.289307 -220.306107
-2950.672363 3794.145264 79.169067
-1954.166260 4175.011719 78.927605
-3296.908447 3234.767090 49.987808
-3181.248779 3375.581055 -92.444878
-2908.795410 3711.343262 -118.056633
-2734.337891 3846.277100 -129.804138
-2342.638428 4076.087158 -44.824257
-2574.200684 1640.325439 -226.494614
-2480.199707 1758.941528 -411.407959
-2081.823242 2111.193359 -712.927307
-1621.351807 2324.270752 -778.082336
-2179.964111 1730.699097 -446.874176
-3365.053223 2992.891602 158.535324
-2081.978516 -274.592651 372.275574
-1628.623779 -253.649200 669.094177
-816.674255 -274.592651 689.790222
-662.816284 -274.592651 593.055725
-437.726624 -274.592621 107.220612
-661.568481 -274.592590 -399.593414
-815.422119 -274.592590 -498.428253
-1110.233398 -274.592590 -507.127350
-1691.670410 -274.592621 -349.183929
-2081.978516 -274.592621 -275.206238
-2081.436035 -274.592590 -585.226440
-374.207886 -274.592590 -585.226440
-374.207947 -274.592651 790.174316
-2081.436035 -274.592651 790.174316
-374.207947 -274.592621 -104.451134
-2196.181152 -1863.298462 -695.627991
-2196.180908 -1863.298462 891.488281
-246.236328 -1863.298462 -695.628052
-246.236328 -1863.298462 891.488220
-1470.261963 325.579254 722.894043
-1586.216187 319.948578 779.071899
-1777.727539 214.604248 717.032532
-1613.640137 555.486877 843.512329
-1943.455078 382.807404 722.351868
-2006.465820 -16.792606 484.951172
-2210.832031 120.200363 229.684891
-2246.801270 141.088470 49.148037
-2235.468506 -262.344604 27.658022
-2013.709229 1048.459717 252.521866
-1747.567871 998.174316 821.933899
-2013.268799 619.109863 696.503235
-2117.705811 530.133606 477.942596
-2230.541504 17.165548 -154.401413
-1598.733398 -157.670975 -331.479065
-1418.671509 1101.427002 -704.355347
-1620.893311 850.273987 -656.255615
-1710.003662 883.876465 -483.258301
-1449.447266 759.178650 -639.164368
-1601.068604 418.653717 -563.212646
-1739.898438 659.712219 -491.485138
-1595.433350 543.289490 -612.078186
-1834.467529 470.779480 -426.394135
-1779.784424 -4.185714 -438.214111
-1962.584473 -72.539391 -372.590149
-2008.025635 245.034988 -426.582947
-1745.558350 1093.542480 -429.201385
-1970.415039 1004.699219 -131.223434
-2013.316650 1003.164185 9.440702
-2096.881592 766.754517 -5.133605
-1836.846680 699.782654 -414.739441
-1906.902344 559.691956 -451.218231
-1951.704590 744.108521 -310.244476
-2072.384766 346.398621 -234.006882
126.047241 1393.599731 427.067780
114.802368 1357.561035 524.598633
89.577271 1363.880005 598.236511
37.759277 1404.614014 684.315796
22.116699 1354.389526 742.816284
107.540283 1524.966309 348.024017
129.452271 1574.009521 346.906738
181.858398 1603.504150 423.519653
175.305908 1661.094238 414.690369
197.655273 1608.607300 525.003601
204.410156 1686.549316 523.161743
145.837280 1595.417847 608.728455
-71.620361 1549.735596 781.555664
154.346436 1392.654541 375.924835
183.375488 1254.567993 422.710083
-93.388794 1551.194702 820.928284
236.706421 1398.873657 306.272156
195.965576 1147.856323 402.000549
97.055298 963.194641 569.292725
-184.029785 1290.969604 885.173767
-178.396423 1530.523193 857.648926
-23.170654 1668.427612 829.035583
-7.057495 1628.257813 802.820313
29.118042 1794.229370 786.459412
111.735474 1749.485229 755.833923
77.052979 1846.733276 748.544739
186.388428 1890.774780 613.291199
204.296021 1810.258667 637.696960
204.082642 1745.014282 639.868713
286.906372 955.859192 335.337250
297.386108 1056.773315 353.265839
366.943726 1649.692383 158.117142
385.508789 1587.341064 158.117157
473.573975 1349.116821 119.701866
483.415039 1350.225342 158.117142
573.980957 1125.066284 158.798981
473.417114 1346.467651 196.370499
365.486572 1582.366577 216.158524
318.750244 1751.703735 377.475311
357.418945 1647.363281 219.658875
393.277832 1075.129150 296.789703
326.560425 1144.510376 309.049774
318.097168 988.967712 332.056580
372.269287 1007.778137 303.466553
557.637695 1077.761230 236.505844
465.000000 1018.930603 273.750366
549.356689 1020.417908 239.685089
584.524902 1063.667114 177.124084
565.708984 1012.558289 201.335907
567.399658 1002.903259 158.464264
547.808838 984.929382 215.437256
444.264893 991.276062 252.045563
111.500244 1685.249146 734.913269
216.305664 1670.402588 419.859558
133.879517 1591.080688 416.911469
129.668091 1493.609985 417.170685
-17.341553 1179.256714 759.874146
-429.984558 979.344604 889.263916
-361.068237 1204.120361 909.052429
145.328369 683.575623 419.197540
271.591309 929.641174 280.731567
353.645996 930.298157 174.627411
340.045410 976.997253 224.483200
289.931641 966.975525 295.108276
406.822754 975.883118 204.263412
388.121216 1009.266418 218.249893
509.636597 958.498596 202.096680
486.716675 951.652771 159.251389
399.698364 953.805115 159.018066
341.509766 796.422302 139.948044
365.260498 803.027893 241.226120
340.449951 795.243591 201.150345
261.191284 649.660339 287.937317
281.223755 721.916443 234.351669
285.552124 655.658264 223.350433
302.721313 715.515869 130.979630
292.963013 656.378845 138.873199
277.725830 598.572144 220.640823
265.118408 608.329651 288.311737
199.273315 564.465759 346.707062
171.827148 518.706238 375.729401
227.752686 535.117981 254.599167
260.562134 408.770050 161.840820
211.885864 296.446045 298.324036
154.346313 228.538589 325.098450
93.842896 391.286377 455.364929
532.843750 961.168152 158.974686
248.379150 335.657684 161.840820
29.302246 280.036133 455.807617
-305.389038 519.232544 727.618713
121.495239 162.087708 172.933350
-341.317444 87.554039 162.143127
-398.566406 72.746483 178.596985
-411.296509 69.437042 133.314331
-444.493652 75.274338 268.776520
103.741943 175.278671 307.542603
-92.035034 148.030380 349.320190
-505.423645 129.737366 404.355896
-16.746216 202.465820 412.740021
-550.251404 193.700317 504.320465
-597.035889 862.773438 865.999268
-876.180237 721.297363 830.840698
-648.154968 464.191376 750.861572
-806.903320 486.426605 751.110779
-836.996826 423.042816 747.062439
-754.614624 412.393951 699.809631
-626.945129 252.649643 573.539063
-517.028809 248.835556 588.109924
-764.197266 56.580208 696.943176
-1115.648560 707.196777 789.855713
313.153809 2081.874756 239.763626
236.051636 1940.848511 558.243958
305.556885 2248.382080 283.927979
132.820068 1877.851440 690.917908
127.679321 1911.672729 789.746948
180.821045 1911.470825 721.587891
217.838745 1932.910767 667.266907
4.878296 1747.794556 976.530701
-119.783447 1630.459229 1043.555054
-252.321411 1330.347412 1075.104858
-680.006775 1374.308960 1232.838989
-478.956848 1279.215088 1227.185669
-521.905212 1095.272339 1000.054688
-434.096008 1183.605957 1160.543945
-865.348022 1256.500610 1237.912476
-625.879700 1219.849609 1276.681641
-561.471191 1124.626587 1128.406006
-650.361877 1063.969971 1207.474609
-686.669495 929.423584 1086.389404
-1199.450562 1055.078003 1192.767944
-1406.332031 1084.635254 1025.316528
-1307.704590 935.779785 1086.386353
-1152.839355 911.623047 1130.146973
-1123.687012 870.317261 1057.160522
-1084.055176 752.294800 994.347046
-871.900635 946.140991 1213.018311
-646.118286 869.519165 1075.441040
-780.811035 856.877808 1146.609497
-1151.309326 740.636230 897.427795
-21.552368 2467.205322 731.202576
60.949219 2576.044434 585.816833
-56.426270 2529.920410 750.562439
-2.857910 2641.175293 677.229004
24.117432 2669.481689 611.212708
84.293457 2500.173584 594.814087
-200.878052 2867.366699 664.593811
-17.036621 2765.562500 448.690369
37.877441 2687.958496 406.398041
50.600220 2655.967773 484.002075
120.840332 2546.981934 505.368774
85.025391 2628.714844 453.094940
50.279785 2199.787109 814.623047
40.494873 2074.804932 838.423462
22.844849 2121.803955 853.806641
-16.453735 2059.338867 877.236267
-15.742798 2016.717651 858.640808
645.424805 1994.989502 410.049072
627.539551 2112.561035 410.397491
677.416016 2048.662354 345.353729
650.117310 2139.369629 305.904816
647.469604 2112.229492 272.418793
622.605103 2191.794189 269.804840
610.801636 2167.711426 239.080261
423.283325 2382.789307 262.618805
247.995361 2543.088135 303.398041
227.462280 2535.188232 265.967224
28.228882 2684.086914 349.488586
-59.830688 2755.364746 391.099731
-44.600708 2505.415527 802.302002
43.032227 2287.789063 764.341858
28.882813 2397.695068 794.691284
47.867676 2309.838623 805.242920
-288.629089 1960.247681 987.396301
-229.317261 1995.161011 988.427490
-444.729980 1974.731323 1019.608154
-402.854919 2006.110474 1028.795776
-577.311951 2047.757446 1021.176819
-531.061279 2068.955078 1045.194580
43.973511 2237.051514 834.590637
-109.612183 2528.967041 772.398315
-88.203979 2498.670166 811.216370
-128.115479 2454.555664 802.562073
-191.633789 2765.117188 750.046936
-233.845947 2528.818359 851.028503
-442.008362 2871.703125 710.849365
-516.404053 2714.342285 893.942749
-530.406433 2802.115479 848.896423
-589.313782 2809.883545 816.551575
-705.201843 2626.769531 934.389465
-327.861145 2533.832520 879.333618
-234.273743 2478.243652 842.330933
-100.389893 2345.254395 831.158386
-691.581909 2289.127686 1024.839722
690.485352 1950.259521 371.619202
572.257446 1944.370728 504.242493
-339.402710 1909.510376 1021.243652
-684.536743 1937.128296 1080.183105
776.506958 1952.936768 208.591217
691.433350 2116.093018 183.928833
181.673096 2631.639893 158.128693
-294.651062 3198.514648 213.358093
-336.930542 3124.453857 235.483917
-315.684631 2910.333740 553.953125
-451.443787 2904.528320 650.521790
-492.837097 2915.473877 690.982178
-362.475525 3290.656006 158.118729
-487.428040 2922.172607 646.742859
-501.162048 2960.064453 652.339172
-516.219849 3144.571289 648.186279
-491.421265 3213.942139 587.893799
-451.964233 3285.844971 445.125732
-481.478149 3181.058350 464.091034
-459.555481 2984.229248 608.391418
-643.881409 3542.775879 335.236725
-722.520569 3370.515137 641.223145
-2144.813477 1380.170532 443.490082
-1885.805420 1666.885376 864.358398
-1445.177002 2104.227539 1038.002930
-1009.461182 2118.621826 1072.265503
-1608.837891 1297.501587 881.143250
-1825.345947 1157.236450 672.673218
-951.833557 1827.234497 1122.349365
-1245.362793 1501.459717 1086.578979
-1229.926514 1268.374390 1257.113159
-716.696899 1728.965210 1189.426392
-822.105286 1446.930298 1316.467773
-1072.009277 1209.363892 1298.476196
-217.763977 1744.294189 1202.279175
105.181519 2302.766357 561.562012
336.971924 1006.907776 266.408386
126.169556 1407.730103 -85.896225
114.948608 1366.083496 -175.621811
89.718384 1368.025269 -246.725998
37.871338 1403.482178 -333.462158
62.800903 1307.281616 -341.123474
22.261841 1351.958618 -398.056183
-17.501221 1445.705078 -386.946716
-8.693481 1527.137085 -391.838593
107.572754 1543.359375 -20.803940
129.451050 1592.386108 -22.839207
181.835815 1617.473877 -95.634834
175.243652 1675.456421 -90.989220
197.628052 1616.684448 -191.532837
204.329102 1694.590576 -194.601303
145.818115 1598.539307 -271.152435
11.190674 1588.528076 -410.351105
-71.609497 1542.306274 -439.717896
192.107422 1255.173218 -74.096352
-2.937988 1282.731445 -445.336151
-38.803589 1419.544556 -442.815186
-93.380005 1547.994385 -479.182739
277.778198 1150.535034 -8.487278
160.085693 990.747559 -199.123215
40.333740 1082.215698 -388.691284
-183.842041 1287.156494 -543.828308
-178.373901 1526.944458 -516.979309
-23.243164 1665.200317 -488.491211
-7.101929 1625.272217 -461.254700
111.607422 1746.987183 -414.569489
76.858032 1844.270996 -408.063049
186.164673 1889.566406 -274.785400
204.127930 1808.852783 -297.833588
203.959229 1743.591919 -299.366089
267.682983 1812.211426 -178.423645
238.325317 1950.855469 -143.361511
287.331299 957.181885 -3.074461
297.741211 1057.942871 -20.641979
251.545166 1010.348877 -18.283716
260.495239 929.722412 31.486691
365.480225 1584.759521 99.346664
338.190430 1697.900269 49.038284
260.758667 1748.257080 -184.923508
393.620850 1076.857056 31.142538
324.591553 990.878906 7.168904
372.658691 1009.435913 25.703451
557.979370 1080.128662 86.113953
455.024170 1007.172119 62.830639
549.738037 1022.754028 83.815826
580.445801 1066.378174 122.857658
566.095947 1015.249084 118.680122
548.214966 987.477356 106.189903
216.236938 1684.477783 -96.384323
133.865723 1605.421021 -88.700951
129.721558 1508.120239 -82.881363
-54.727173 1176.075562 -478.699799
-429.581665 975.338013 -545.683105
-309.867004 1280.219971 -553.684265
352.738525 936.198059 129.038284
341.333496 987.068176 104.188850
292.641479 973.537231 38.841602
407.235107 978.431580 116.410797
386.866577 1011.285950 101.897697
510.061157 961.137634 118.554085
89.317871 674.885193 -273.013367
365.828369 808.360352 84.815697
141.522095 677.514709 -75.549973
261.828125 650.702148 42.689884
281.811157 726.209045 91.474815
281.843018 656.446960 84.114525
278.398682 598.519287 103.988182
265.783813 607.368591 42.434578
199.968384 561.952087 -11.977861
172.553467 516.104370 -39.328278
228.468872 531.727905 72.840584
231.915283 516.227295 124.028168
229.597900 487.135651 65.299973
212.766602 298.065399 37.656784
155.273560 229.887177 13.703864
30.192505 280.156006 -108.741058
-424.490112 86.160614 64.109291
104.706299 176.747528 30.413942
-91.052490 149.000687 -7.870995
-504.428894 129.942703 -58.907608
-15.801880 202.932602 -67.490776
-365.232361 290.898376 -256.433075
-767.882813 751.477783 -503.833618
-972.434021 721.400146 -467.129883
-870.740173 573.801453 -432.736298
-967.485718 481.517731 -502.105927
-806.158508 483.384338 -398.999390
-815.212891 441.206635 -451.252289
-626.036987 251.290100 -221.057602
-516.118408 247.424927 -235.168350
-1150.685303 659.034302 -581.193604
127.439453 1912.277832 -473.510529
214.104614 1920.916016 -349.827209
9.535400 1708.870850 -617.531921
-22.291504 1779.101807 -682.617126
-170.884399 1693.515869 -747.997742
-129.530396 1672.431641 -649.252991
-182.610046 1675.916382 -786.965454
-119.831909 1630.893677 -727.315979
-101.998413 1611.518311 -661.845459
-198.245972 1476.303467 -700.125793
-203.063110 1529.443604 -720.348511
-252.163025 1330.690430 -758.864624
-521.583618 1095.429199 -683.811523
-625.647156 1219.934937 -960.437195
-973.199585 1070.583130 -881.789917
-561.171265 1124.756348 -812.162354
-459.172729 1090.343628 -728.491882
-1127.160278 1123.195679 -911.738464
-700.990601 849.395691 -784.124329
-1123.147217 778.394958 -740.928528
-1194.656128 888.430725 -842.550354
-1405.933350 983.258728 -709.083191
-1247.526245 922.537659 -763.379822
-1306.488281 1064.996094 -783.034851
-645.641602 869.590393 -759.196533
-780.326416 856.856018 -830.363464
-1248.736084 568.781311 -611.329834
-22.175171 2467.707031 -414.964172
60.252930 2576.603027 -269.579315
-57.092651 2530.398193 -434.323578
-3.600220 2641.689941 -360.990631
23.356201 2670.014893 -294.974670
83.649292 2500.748291 -278.576874
340.468872 2388.140869 -132.191315
-201.776367 2867.744629 -348.353149
-17.862305 2766.067139 -132.451828
37.105835 2688.500977 -90.160133
49.849854 2656.519043 -167.764374
120.164917 2547.582031 -189.131897
84.294189 2629.290039 -136.857605
49.840698 2200.338623 -498.385620
40.141846 2075.349854 -522.185974
22.459106 2122.336182 -537.568909
-16.796631 2059.844482 -560.998108
-104.530273 1999.187744 -590.156738
-16.056030 2017.223877 -542.402710
645.131470 1995.951660 -93.818321
674.042114 2046.182373 -35.632221
627.165039 2113.510986 -94.166466
649.921387 2140.197021 10.319571
647.096802 2113.193115 43.811954
579.892334 2231.833740 -3.777192
622.177490 2192.740479 46.426231
610.390991 2168.649658 77.150970
412.681152 2368.758057 77.825638
27.460571 2684.623047 -33.250580
-60.648682 2755.839844 -74.860748
-45.250610 2505.901367 -486.063324
42.532959 2288.335449 -448.104187
34.626587 2395.359131 -471.555542
58.251099 2305.990234 -480.726868
-288.904663 1960.565430 -671.155151
-229.616943 1995.519775 -672.187012
-445.015869 1974.941406 -703.365234
-403.162598 2006.349365 -712.553345
-577.648254 2047.875977 -704.932434
-531.412476 2069.105469 -728.950745
43.508423 2237.598633 -518.353027
-110.278076 2529.408203 -456.158844
-88.849365 2499.125977 -494.977203
-128.730225 2454.983887 -486.322479
-192.462463 2765.501465 -433.806427
-234.512634 2529.173584 -534.787720
-442.910156 2871.914551 -394.606018
-517.199158 2714.502197 -577.698608
-531.261658 2802.265869 -532.652161
-590.174011 2809.993164 -500.306641
-705.936890 2626.799072 -618.143250
-328.531555 2534.122803 -563.091736
-234.905334 2478.598633 -526.090210
-100.929565 2345.701904 -514.919128
-753.171814 2293.549805 -680.033386
690.223267 1951.252930 -55.389019
571.998047 1945.282715 -188.010986
11.478149 1953.138672 -554.856689
-224.342163 1929.121094 -664.481018
-339.643616 1909.793213 -705.001953
-684.797302 1937.172852 -763.937683
776.244873 1953.989502 107.637978
86.529053 2780.430908 190.696899
1.889893 2777.715332 142.374893
-295.772949 3198.827393 102.883781
-338.001526 3124.737305 80.758385
-316.611328 2910.632080 -237.711151
-423.410095 3252.781250 -139.963669
-490.968140 2923.327881 -344.513214
-502.124146 2960.235107 -336.095093
-536.343567 3017.890381 -398.014496
-492.557983 3214.119141 -271.649658
-488.540894 3117.384521 -292.130981
-499.458801 3083.986328 -264.887634
-482.548645 3162.539795 -155.815826
-460.533813 2984.428467 -292.147766
-687.706543 3444.394287 -235.184036
-640.491455 3554.155029 21.554535
-2191.013672 1307.472656 6.687349
-1445.552246 2103.746338 -721.748840
-1191.472168 2360.862793 -732.727234
-1282.897217 1547.190430 -733.523987
-952.018616 1827.094482 -806.100952
-1403.534302 1279.304077 -676.257385
-1052.107910 1568.264771 -836.805298
-1319.262695 1235.712158 -780.244324
-1129.434570 1327.185059 -970.848328
-1229.667847 1182.404907 -940.878662
-716.814941 1728.987549 -873.180542
-822.029907 1446.880127 -1000.221130
-860.791138 1389.128296 -1012.143127
-1209.953369 1036.689941 -922.707397
-1071.769653 1209.141235 -982.226746
-874.717163 1310.941040 -982.987366
-217.892822 1744.661011 -886.039001
-219.749634 1835.757813 -837.633789
104.674072 2303.355713 -245.325104
288.554932 2441.123779 118.083435
326.226563 1001.890015 62.252373
351.835327 1641.329834 74.192474
95.449097 677.240540 588.725830
-1227.822021 -274.592651 790.174316
3 6 535 0
3 1 2 3
3 6 0 5
3 3 2 7
3 6 5 7
3 7 5 3
3 8 3 11
3 11 10 8
3 9 8 10
3 12 11 3
3 21 12 3
3 11 22 10
3 9 10 13
3 17 16 15
3 9 17 24
3 17 15 24
3 13 14 17
3 21 42 20
3 4 21 5
3 42 21 4
3 21 20 12
3 21 3 5
3 23 10 22
3 23 53 13
3 14 13 53
3 23 13 10
3 17 9 13
3 43 23 18
3 22 18 23
3 22 11 18
3 19 18 11
3 11 12 19
3 20 19 12
3 9 24 25
3 25 1 8
3 25 8 9
3 3 8 1
3 24 26 25
3 26 24 15
3 15 27 26
3 28 27 16
3 15 16 27
3 535 30 0
3 0 30 5
3 5 30 4
3 30 31 4
3 32 33 34
3 29 34 33
3 32 34 30
3 30 34 31
3 35 31 34
3 34 29 35
3 35 36 37
3 46 35 37
3 46 31 35
3 31 46 47
3 38 44 37
3 36 39 37
3 40 17 39
3 16 40 48
3 38 37 39
3 41 18 19
3 20 47 41
3 41 19 20
3 47 20 42
3 42 4 31
3 42 31 47
3 38 43 44
3 37 45 46
3 53 43 38
3 53 38 39
3 39 14 53
3 40 16 17
3 17 14 39
3 37 44 45
3 18 44 43
3 44 18 41
3 41 45 44
3 41 46 45
3 46 41 47
3 39 49 40
3 40 49 48
3 51 36 29
3 49 39 36
3 36 50 49
3 36 51 50
3 36 35 29
3 49 50 52
3 49 52 48
3 48 52 28
3 28 16 48
3 53 23 43
3 63 62 64
3 64 62 61
3 61 65 64
3 59 65 60
3 67 559 55
3 58 66 68
3 68 65 59
3 58 57 66
3 57 56 66
3 60 65 61
3 68 59 58
3 559 66 56
3 54 67 55
3 63 64 69
3 64 65 71
3 559 67 70
3 70 72 66
3 68 66 72
3 71 69 64
3 65 68 72
3 72 71 65
3 72 70 69
3 71 72 69
3 75 55 73
3 73 245 74
3 75 73 74
3 76 83 84
3 77 75 76
3 76 75 245
3 74 245 75
3 55 75 54
3 54 75 78
3 85 78 75
3 78 85 79
3 75 77 85
3 84 85 77
3 78 81 54
3 80 79 85
3 79 81 78
3 83 327 82
3 85 84 82
3 83 82 84
3 82 85 83
3 84 83 85
3 87 62 63
3 453 450 89
3 90 88 89
3 89 88 452
3 452 453 89
3 90 89 91
3 91 89 450
3 93 90 91
3 91 430 94
3 98 94 92
3 92 96 98
3 93 91 95
3 95 91 98
3 98 91 94
3 98 92 96
3 457 96 92
3 97 87 63
3 87 97 96
3 96 457 87
3 96 97 98
3 97 86 98
3 106 95 98
3 63 86 97
3 81 86 63
3 81 63 54
3 100 99 102
3 100 102 101
3 82 101 102
3 99 105 102
3 99 90 105
3 90 93 103
3 104 103 93
3 104 93 95
3 105 103 104
3 105 90 103
3 104 106 102
3 102 105 104
3 95 106 104
3 102 106 85
3 106 102 105
3 105 104 106
3 82 102 85
3 79 86 81
3 98 80 106
3 80 85 106
3 86 80 98
3 86 79 80
3 120 107 121
3 108 121 107
3 109 121 108
3 111 109 110
3 108 118 109
3 118 108 162
3 107 162 108
3 162 107 112
3 114 113 115
3 114 115 116
3 117 116 115
3 116 117 118
3 112 107 120
3 123 112 120
3 123 120 148
3 121 148 120
3 111 110 119
3 119 122 111
3 121 124 148
3 123 144 112
3 123 148 144
3 137 124 125
3 121 125 124
3 125 121 109
3 136 149 137
3 163 125 111
3 125 109 111
3 126 122 127
3 128 127 122
3 129 128 122
3 130 128 131
3 130 131 132
3 134 131 135
3 133 134 145
3 145 217 133
3 124 137 148
3 151 142 143
3 141 143 142
3 141 139 143
3 144 143 139
3 141 140 139
3 146 217 145
3 134 135 145
3 112 146 113
3 146 112 144
3 217 146 138
3 143 144 148
3 147 151 148
3 149 150 137
3 137 150 147
3 137 147 148
3 144 139 146
3 138 146 139
3 148 151 143
3 147 150 151
3 152 151 150
3 153 151 152
3 151 153 154
3 155 154 153
3 142 151 154
3 155 156 154
3 157 156 155
3 155 153 157
3 158 157 152
3 153 152 157
3 122 119 129
3 159 129 119
3 128 129 159
3 128 159 131
3 131 159 135
3 145 135 117
3 118 117 135
3 135 159 118
3 117 160 145
3 160 117 115
3 115 113 160
3 160 113 145
3 146 145 113
3 116 118 114
3 161 114 118
3 114 161 113
3 112 113 162
3 161 162 113
3 110 159 119
3 159 110 118
3 109 118 110
3 162 161 118
3 126 164 163
3 164 165 207
3 165 164 126
3 126 127 165
3 126 163 122
3 163 111 122
3 169 167 168
3 170 136 167
3 136 170 149
3 166 167 125
3 168 171 169
3 172 169 171
3 150 158 152
3 157 158 173
3 174 173 171
3 158 171 173
3 175 174 171
3 175 171 168
3 558 166 125
3 125 167 136
3 167 177 168
3 196 192 558
3 166 177 167
3 177 178 168
3 168 178 176
3 166 179 180
3 181 180 179
3 180 181 182
3 183 182 181
3 181 184 183
3 184 181 185
3 179 185 181
3 185 179 166
3 185 166 186
3 166 187 186
3 187 188 186
3 188 185 186
3 184 185 188
3 192 166 558
3 184 188 411
3 188 189 411
3 188 187 190
3 192 190 187
3 192 187 166
3 190 192 191
3 173 174 193
3 173 193 157
3 156 157 193
3 190 194 188
3 189 188 194
3 190 197 194
3 197 190 191
3 202 191 195
3 192 195 191
3 192 196 195
3 163 196 558
3 199 200 198
3 201 198 202
3 197 202 198
3 198 201 199
3 202 203 201
3 204 201 203
3 205 203 202
3 203 205 204
3 191 202 197
3 195 205 202
3 196 214 195
3 205 195 214
3 214 204 205
3 215 211 559
3 196 163 164
3 196 164 207
3 209 196 207
3 209 207 208
3 209 214 196
3 209 208 210
3 210 208 211
3 211 212 210
3 209 210 212
3 212 213 209
3 213 206 214
3 204 214 206
3 214 209 213
3 200 199 58
3 199 201 58
3 58 201 204
3 204 206 58
3 206 57 58
3 57 206 215
3 57 215 56
3 215 212 211
3 212 215 213
3 206 213 215
3 216 211 208
3 216 55 211
3 216 73 55
3 56 215 559
3 217 219 218
3 217 218 133
3 134 133 220
3 134 220 131
3 132 131 220
3 221 132 220
3 222 221 220
3 222 223 221
3 223 222 133
3 220 133 222
3 133 218 223
3 132 221 130
3 221 224 128
3 128 224 334
3 225 128 334
3 127 128 225
3 334 228 225
3 226 127 225
3 165 127 226
3 227 228 334
3 225 228 226
3 165 226 228
3 227 231 232
3 231 333 234
3 227 232 228
3 228 232 230
3 234 232 231
3 233 232 234
3 229 230 233
3 233 230 232
3 333 236 239
3 333 242 234
3 233 243 229
3 230 229 165
3 228 230 165
3 235 234 242
3 234 235 233
3 236 238 239
3 239 238 240
3 238 237 83
3 237 238 236
3 83 245 238
3 241 238 245
3 241 240 238
3 240 241 244
3 239 242 333
3 243 233 235
3 242 239 240
3 243 235 244
3 242 244 235
3 240 244 242
3 207 243 208
3 244 208 243
3 216 208 245
3 241 208 244
3 207 165 243
3 165 229 243
3 245 208 241
3 245 73 216
3 245 83 76
3 251 256 247
3 250 249 247
3 248 246 249
3 247 249 251
3 251 249 246
3 250 252 249
3 250 253 252
3 252 289 249
3 255 254 253
3 255 253 250
3 255 250 247
3 255 247 256
3 251 264 256
3 257 254 255
3 255 256 257
3 251 246 276
3 276 264 251
3 276 258 264
3 264 258 259
3 260 259 258
3 259 260 261
3 261 262 259
3 264 301 265
3 264 259 262
3 265 266 264
3 266 265 267
3 264 266 268
3 268 266 269
3 267 269 266
3 268 270 264
3 270 271 264
3 264 271 254
3 254 257 264
3 256 264 257
3 270 268 269
3 272 271 270
3 271 272 254
3 273 254 272
3 254 273 253
3 274 253 273
3 248 275 246
3 275 277 246
3 246 277 276
3 278 276 277
3 278 258 276
3 261 280 262
3 279 262 280
3 282 279 280
3 279 282 281
3 281 282 283
3 284 283 282
3 285 258 278
3 258 285 260
3 260 285 261
3 248 286 275
3 287 275 286
3 288 287 286
3 288 286 289
3 248 289 286
3 249 289 248
3 253 274 309
3 252 291 289
3 309 252 253
3 290 288 289
3 296 290 289
3 289 291 292
3 289 292 296
3 293 292 291
3 295 292 293
3 294 295 293
3 293 291 294
3 290 296 297
3 288 290 297
3 287 288 298
3 296 282 298
3 285 298 282
3 297 296 298
3 298 288 297
3 277 275 278
3 287 278 275
3 278 287 285
3 298 285 287
3 282 261 285
3 296 292 282
3 280 261 282
3 284 282 295
3 299 284 295
3 292 295 282
3 299 283 284
3 265 263 304
3 300 304 263
3 301 300 263
3 265 301 263
3 301 264 221
3 262 221 264
3 221 262 224
3 224 262 302
3 279 302 262
3 303 302 281
3 279 281 302
3 283 303 281
3 265 304 267
3 305 267 304
3 267 305 269
3 305 484 270
3 305 270 269
3 306 273 272
3 273 520 274
3 520 309 274
3 318 309 520
3 310 291 309
3 309 291 252
3 310 311 291
3 311 294 291
3 294 315 295
3 307 320 317
3 320 307 312
3 311 310 313
3 313 314 311
3 294 311 315
3 314 315 311
3 318 308 317
3 317 308 307
3 317 316 318
3 318 316 314
3 315 314 316
3 314 319 318
3 319 314 313
3 310 319 313
3 319 310 309
3 520 308 318
3 309 318 319
3 306 272 270
3 283 299 303
3 325 299 295
3 299 325 303
3 535 6 320
3 321 317 320
3 7 321 6
3 320 6 321
3 317 321 316
3 316 321 315
3 2 315 321
3 321 7 2
3 315 2 295
3 324 325 295
3 2 1 295
3 27 28 322
3 322 323 27
3 26 323 25
3 324 25 323
3 25 324 1
3 1 324 295
3 326 324 323
3 326 323 327
3 323 322 327
3 82 327 322
3 329 325 324
3 329 324 326
3 27 323 26
3 82 322 101
3 329 328 325
3 326 327 83
3 326 83 329
3 329 83 237
3 237 330 329
3 329 330 331
3 332 331 330
3 334 331 332
3 329 331 328
3 331 303 328
3 325 328 303
3 303 331 334
3 332 330 333
3 236 330 237
3 330 236 333
3 231 332 333
3 332 231 227
3 332 227 334
3 303 334 302
3 224 302 334
3 172 171 158
3 172 158 150
3 180 177 166
3 128 130 221
3 180 182 178
3 178 177 180
3 182 176 178
3 304 300 301
3 335 555 301
3 301 221 335
3 304 301 555
3 218 219 335
3 555 335 219
3 219 217 555
3 221 223 335
3 223 218 335
3 150 149 336
3 167 169 336
3 169 172 336
3 170 167 336
3 149 170 336
3 172 150 336
3 359 338 337
3 359 339 338
3 339 359 341
3 341 340 339
3 341 342 343
3 343 340 341
3 340 343 344
3 351 338 339
3 338 351 390
3 390 337 338
3 337 390 345
3 346 347 348
3 348 347 349
3 349 350 348
3 350 349 351
3 344 352 365
3 344 353 352
3 354 359 337
3 337 345 354
3 342 341 355
3 355 356 342
3 343 342 356
3 343 356 353
3 344 343 353
3 357 353 356
3 376 354 345
3 345 346 377
3 376 358 354
3 359 354 358
3 359 360 341
3 360 391 355
3 341 360 355
3 361 362 356
3 357 356 362
3 362 363 364
3 364 357 362
3 363 366 365
3 365 368 369
3 368 367 370
3 217 377 370
3 217 370 371
3 371 370 367
3 374 359 373
3 373 359 358
3 372 359 374
3 138 377 217
3 140 141 142
3 376 139 140
3 378 370 377
3 370 378 369
3 369 368 370
3 557 345 377
3 138 557 377
3 376 140 358
3 382 379 358
3 381 380 373
3 381 373 379
3 379 373 358
3 376 138 139
3 358 140 382
3 381 379 382
3 382 383 381
3 382 384 383
3 384 382 385
3 385 386 384
3 385 382 140
3 140 142 385
3 154 385 142
3 385 154 156
3 156 386 385
3 156 387 386
3 384 386 387
3 383 384 387
3 353 357 364
3 364 352 353
3 352 364 365
3 364 363 365
3 369 378 350
3 350 351 369
3 365 369 351
3 378 377 388
3 388 350 378
3 350 388 348
3 346 348 388
3 346 388 377
3 389 351 347
3 389 347 346
3 346 345 390
3 390 389 346
3 365 340 344
3 340 365 351
3 351 339 340
3 349 347 351
3 389 390 351
3 391 392 361
3 392 393 361
3 393 362 361
3 391 361 356
3 355 391 356
3 391 360 400
3 375 359 372
3 375 395 394
3 372 396 375
3 396 372 380
3 380 372 374
3 374 373 380
3 397 394 395
3 395 398 397
3 383 387 399
3 399 174 397
3 397 383 399
3 174 175 397
3 397 175 168
3 168 394 397
3 394 168 176
3 402 400 359
3 402 359 375
3 400 360 359
3 402 375 401
3 401 394 176
3 402 409 400
3 404 403 402
3 404 405 403
3 405 404 182
3 182 183 405
3 183 184 406
3 406 405 183
3 405 406 407
3 407 403 405
3 403 407 402
3 402 407 408
3 409 402 408
3 410 409 408
3 407 410 408
3 407 406 410
3 411 412 410
3 409 410 412
3 410 406 411
3 411 406 184
3 189 412 411
3 413 412 194
3 413 409 412
3 409 413 414
3 409 414 400
3 174 399 193
3 193 399 387
3 387 156 193
3 194 412 189
3 197 413 194
3 413 197 414
3 414 417 415
3 415 400 414
3 400 415 421
3 421 391 400
3 198 416 197
3 416 198 200
3 197 418 417
3 418 197 416
3 416 419 418
3 418 420 417
3 418 419 420
3 414 197 417
3 420 415 417
3 415 420 421
3 419 421 420
3 393 392 422
3 422 424 423
3 425 423 424
3 425 59 60
3 392 391 421
3 392 426 422
3 426 392 421
3 426 424 422
3 424 426 427
3 427 425 424
3 428 427 426
3 419 428 429
3 426 429 428
3 58 419 416
3 416 200 58
3 58 59 419
3 425 427 59
3 59 427 428
3 59 428 419
3 421 419 429
3 429 426 421
3 423 425 430
3 457 430 61
3 62 87 61
3 60 61 425
3 425 61 430
3 61 87 457
3 555 217 371
3 367 368 365
3 365 366 367
3 366 431 367
3 431 432 367
3 371 367 432
3 366 363 433
3 431 366 433
3 434 431 433
3 431 434 516
3 436 435 434
3 436 434 433
3 435 438 437
3 438 435 436
3 436 439 438
3 436 363 439
3 436 433 363
3 362 393 440
3 363 362 441
3 441 439 363
3 439 441 438
3 444 437 438
3 441 362 440
3 441 444 438
3 440 393 442
3 440 442 441
3 444 551 437
3 444 441 442
3 442 447 444
3 447 442 393
3 448 551 445
3 450 448 445
3 444 445 551
3 444 446 449
3 447 446 444
3 443 447 393
3 447 443 446
3 455 446 443
3 448 450 451
3 453 451 450
3 452 88 454
3 453 452 454
3 453 454 451
3 91 450 430
3 450 445 444
3 446 455 449
3 456 444 449
3 456 450 444
3 422 449 455
3 422 456 449
3 393 422 455
3 443 393 455
3 430 457 94
3 457 92 94
3 469 463 459
3 461 462 459
3 458 460 461
3 461 459 463
3 461 463 458
3 464 479 463
3 465 462 461
3 466 462 465
3 502 465 461
3 467 468 466
3 466 468 462
3 462 468 459
3 459 468 469
3 464 463 469
3 467 470 468
3 469 468 470
3 469 470 464
3 458 463 489
3 479 489 463
3 471 489 479
3 471 479 472
3 472 473 471
3 473 472 474
3 475 474 476
3 476 474 472
3 472 479 476
3 480 478 479
3 478 480 481
3 482 483 480
3 480 479 464
3 480 483 484
3 484 481 480
3 482 464 485
3 483 482 485
3 485 464 467
3 470 467 464
3 483 485 484
3 467 486 485
3 486 467 466
3 466 487 486
3 488 460 458
3 490 488 458
3 490 458 489
3 489 491 490
3 471 491 489
3 493 474 475
3 475 492 493
3 492 495 493
3 495 492 494
3 495 494 496
3 496 497 495
3 490 491 471
3 471 498 490
3 498 471 473
3 498 473 474
3 499 460 488
3 488 500 499
3 500 501 499
3 499 501 502
3 502 460 499
3 502 461 460
3 487 466 524
3 504 465 502
3 465 524 466
3 501 503 502
3 503 509 502
3 504 502 505
3 505 502 509
3 505 506 504
3 505 508 506
3 508 507 506
3 504 506 507
3 498 497 511
3 500 488 490
3 509 503 510
3 503 501 510
3 501 500 511
3 497 509 511
3 509 510 511
3 501 511 510
3 500 490 498
3 498 511 500
3 474 497 498
3 505 509 497
3 474 493 495
3 474 495 497
3 497 512 508
3 508 505 497
3 496 512 497
3 477 478 519
3 519 513 477
3 513 514 477
3 514 478 477
3 514 479 478
3 514 476 479
3 476 514 515
3 515 475 476
3 475 515 516
3 475 516 517
3 517 492 475
3 517 518 494
3 494 492 517
3 518 496 494
3 496 518 512
3 515 514 431
3 431 516 515
3 305 304 519
3 519 478 481
3 481 305 519
3 305 481 484
3 484 485 270
3 306 270 485
3 486 306 485
3 487 521 486
3 521 487 524
3 520 521 307
3 522 521 523
3 521 524 523
3 312 307 522
3 504 526 524
3 504 524 465
3 507 526 504
3 528 507 508
3 525 535 312
3 312 522 525
3 526 507 528
3 528 527 526
3 530 531 527
3 531 530 532
3 523 532 525
3 523 525 522
3 525 532 530
3 530 529 525
3 529 530 527
3 527 528 529
3 531 532 533
3 533 527 531
3 527 533 526
3 526 533 524
3 532 524 533
3 524 532 523
3 482 480 464
3 512 538 508
3 538 512 518
3 312 535 320
3 534 32 30
3 525 534 535
3 30 535 534
3 534 525 529
3 534 529 528
3 528 33 534
3 32 534 33
3 33 528 508
3 508 29 33
3 29 508 538
3 536 322 28
3 536 28 52
3 50 539 52
3 51 537 50
3 51 29 538
3 538 537 51
3 539 99 52
3 52 99 536
3 538 542 537
3 537 542 539
3 536 99 100
3 536 100 101
3 101 322 536
3 540 542 538
3 539 541 90
3 90 99 539
3 541 88 90
3 88 541 454
3 454 541 543
3 543 541 539
3 537 539 50
3 545 543 539
3 544 539 542
3 539 544 545
3 544 542 546
3 546 547 544
3 546 552 547
3 546 542 540
3 518 546 540
3 540 538 518
3 546 518 552
3 544 547 548
3 544 548 550
3 544 550 549
3 549 545 544
3 454 545 549
3 454 543 545
3 451 454 549
3 549 448 451
3 448 549 550
3 548 551 550
3 550 551 448
3 548 547 551
3 551 547 552
3 437 551 552
3 553 552 518
3 435 437 552
3 552 434 435
3 434 552 553
3 553 518 517
3 517 516 553
3 553 516 434
3 397 398 383
3 383 398 381
3 404 402 401
3 394 401 375
3 404 401 182
3 176 182 401
3 513 519 514
3 304 514 519
3 514 304 554
3 554 431 514
3 555 554 304
3 555 371 554
3 432 431 554
3 371 432 554
3 556 395 375
3 375 396 556
3 380 381 556
3 398 395 556
3 396 380 556
3 381 398 556
3 521 520 306
3 486 521 306
3 520 273 306
3 308 520 307
3 521 522 307
3 69 70 54
3 54 63 69
3 54 70 67
3 345 557 376
3 557 138 376
3 422 423 456
3 456 423 430
3 430 450 456
3 76 84 77
3 558 125 163
3 125 136 137
3 55 559 211
3 559 70 66
