ply
format ascii 1.0
element vertex 67
property float x
property float y
property float z
element face 120
property list uchar int vertex_index
end_header
100.000000 173.205078 0.000000
86.602539 173.205078 50.000000
0.000000 200.000000 0.000000
49.999996 173.205078 86.602539
-0.000004 173.205078 100.000000
-50.000004 173.205078 86.602539
-86.602547 173.205078 49.999992
-100.000000 173.205078 -0.000009
-86.602539 173.205078 -50.000008
-49.999989 173.205078 -86.602547
0.000013 173.205078 -100.000000
50.000011 173.205078 -86.602531
86.602547 173.205078 -49.999985
100.000000 173.205078 0.000017
173.205078 99.999992 0.000000
150.000000 99.999992 86.602539
86.602531 99.999992 150.000000
-0.000008 99.999992 173.205078
-86.602547 99.999992 150.000000
-150.000000 99.999992 86.602531
-173.205078 99.999992 -0.000015
-149.999985 99.999992 -86.602554
-86.602524 99.999992 -150.000015
0.000023 99.999992 -173.205078
86.602562 99.999992 -149.999985
150.000015 99.999992 -86.602516
173.205078 99.999992 0.000030
200.000000 -0.000009 0.000000
173.205078 -0.000009 100.000000
99.999992 -0.000009 173.205078
-0.000009 -0.000009 200.000000
-100.000008 -0.000009 173.205078
-173.205093 -0.000009 99.999985
-200.000000 -0.000009 -0.000017
-173.205078 -0.000009 -100.000015
-99.999977 -0.000009 -173.205093
0.000026 -0.000009 -200.000000
100.000023 -0.000009 -173.205063
173.205093 -0.000009 -99.999969
200.000000 -0.000009 0.000035
173.205078 -100.000008 0.000000
150.000000 -100.000008 86.602539
86.602531 -100.000008 150.000000
-0.000008 -100.000008 173.205078
-86.602547 -100.000008 150.000000
-150.000000 -100.000008 86.602531
-173.205078 -100.000008 -0.000015
-149.999985 -100.000008 -86.602554
-86.602524 -100.000008 -150.000015
0.000023 -100.000008 -173.205078
86.602562 -100.000008 -149.999985
150.000015 -100.000008 -86.602516
173.205078 -100.000008 0.000030
99.999985 -173.205093 0.000000
86.602524 -173.205093 49.999992
49.999989 -173.205093 86.602531
-0.000004 -173.205093 99.999985
-49.999996 -173.205093 86.602524
-86.602531 -173.205093 49.999985
-99.999985 -173.205093 -0.000009
-86.602524 -173.205093 -50.000000
-49.999981 -173.205093 -86.602531
0.000013 -173.205093 -99.999985
50.000004 -173.205093 -86.602516
86.602531 -173.205093 -49.999977
99.999985 -173.205093 0.000017
0.000000 -200.000000 0.000000
3 0 1 2
3 1 3 2
3 3 4 2
3 4 5 2
3 5 6 2
3 6 7 2
3 7 8 2
3 8 9 2
3 9 10 2
3 10 11 2
3 11 12 2
3 12 13 2
3 0 14 1
3 14 15 1
3 1 15 3
3 15 16 3
3 3 16 4
3 16 17 4
3 4 17 5
3 17 18 5
3 5 18 6
3 18 19 6
3 6 19 7
3 19 20 7
3 7 20 8
3 20 21 8
3 8 21 9
3 21 22 9
3 9 22 10
3 22 23 10
3 10 23 11
3 23 24 11
3 11 24 12
3 24 25 12
3 12 25 13
3 25 26 13
3 14 27 15
3 27 28 15
3 15 28 16
3 28 29 16
3 16 29 17
3 29 30 17
3 17 30 18
3 30 31 18
3 18 31 19
3 31 32 19
3 19 32 20
3 32 33 20
3 20 33 21
3 33 34 21
3 21 34 22
3 34 35 22
3 22 35 23
3 35 36 23
3 23 36 24
3 36 37 24
3 24 37 25
3 37 38 25
3 25 38 26
3 38 39 26
3 27 40 28
3 40 41 28
3 28 41 29
3 41 42 29
3 29 42 30
3 42 43 30
3 30 43 31
3 43 44 31
3 31 44 32
3 44 45 32
3 32 45 33
3 45 46 33
3 33 46 34
3 46 47 34
3 34 47 35
3 47 48 35
3 35 48 36
3 48 49 36
3 36 49 37
3 49 50 37
3 37 50 38
3 50 51 38
3 38 51 39
3 51 52 39
3 40 53 41
3 53 54 41
3 41 54 42
3 54 55 42
3 42 55 43
3 55 56 43
3 43 56 44
3 56 57 44
3 44 57 45
3 57 58 45
3 45 58 46
3 58 59 46
3 46 59 47
3 59 60 47
3 47 60 48
3 60 61 48
3 48 61 49
3 61 62 49
3 49 62 50
3 62 63 50
3 50 63 51
3 63 64 51
3 51 64 52
3 64 65 52
3 66 54 53
3 66 55 54
3 66 56 55
3 66 57 56
3 66 58 57
3 66 59 58
3 66 60 59
3 66 61 60
3 66 62 61
3 66 63 62
3 66 64 63
3 66 65 64
