ply
format ascii 1.0
element vertex 623
property float x
property float y
property float z
element face 1148
property list uchar int vertex_index
end_header
58.853138 435.746368 437.847656
61.271862 446.228241 451.650909
45.632473 438.882446 448.876190
43.213753 428.400574 435.072937
56.434418 425.264465 424.044373
72.073807 432.610260 426.819092
74.492523 443.092133 440.622375
77.634003 404.993622 487.831390
63.959820 396.794891 486.676514
62.973885 384.242767 476.827179
75.662132 379.889404 468.132751
89.336319 388.088135 469.287659
90.322258 400.640259 479.136963
93.682159 376.787689 529.558960
82.148361 368.697540 529.924622
82.322182 355.907349 524.009094
94.029808 351.207306 517.727844
105.563606 359.297455 517.362183
105.389778 372.087646 523.277710
108.411240 360.555664 572.781372
99.024544 353.304565 574.287476
99.969086 341.678589 571.660583
110.300323 337.303680 567.527466
119.687019 344.554749 566.021362
118.742477 356.180725 568.648254
121.222130 354.367249 614.419189
113.883820 348.399292 616.557678
115.199722 338.796143 616.260925
123.853928 335.160919 613.825684
131.192230 341.128876 611.687195
129.876343 350.732056 611.983948
131.857529 355.871368 652.373718
126.408997 351.363708 654.638306
127.757248 344.134491 655.665466
134.554031 341.412994 654.428040
140.002563 345.920685 652.163391
138.654312 353.149872 651.136230
140.319107 362.644165 685.414490
136.569427 359.567688 687.388794
137.706100 354.674377 688.867554
142.592468 352.857605 688.372009
146.342163 355.934113 686.397705
145.205475 360.827393 684.918945
148.206787 371.175720 717.345581
-58.853138 435.746368 437.847656
-61.271862 446.228241 451.650909
-45.632473 438.882446 448.876190
-43.213753 428.400574 435.072937
-56.434422 425.264465 424.044373
-72.073807 432.610260 426.819092
-74.492523 443.092133 440.622375
-77.634003 404.993622 487.831390
-63.959824 396.794891 486.676514
-62.973885 384.242767 476.827179
-75.662140 379.889404 468.132751
-89.336327 388.088135 469.287659
-90.322258 400.640259 479.136963
-93.682159 376.787689 529.558960
-82.148361 368.697540 529.924622
-82.322189 355.907349 524.009094
-94.029808 351.207306 517.727844
-105.563606 359.297455 517.362183
-105.389778 372.087646 523.277710
-108.411240 360.555664 572.781372
-99.024551 353.304565 574.287476
-99.969093 341.678589 571.660583
-110.300323 337.303650 567.527466
-119.687019 344.554749 566.021362
-118.742477 356.180725 568.648254
-121.222130 354.367249 614.419189
-113.883820 348.399292 616.557678
-115.199722 338.796112 616.260925
-123.853928 335.160919 613.825684
-131.192230 341.128876 611.687195
-129.876343 350.732056 611.983948
-131.857529 355.871368 652.373657
-126.408997 351.363678 654.638306
-127.757248 344.134491 655.665466
-134.554031 341.412964 654.428040
-140.002563 345.920654 652.163391
-138.654312 353.149872 651.136230
-140.319107 362.644165 685.414490
-136.569427 359.567688 687.388794
-137.706085 354.674377 688.867554
-142.592468 352.857605 688.372009
-146.342163 355.934113 686.397705
-145.205475 360.827362 684.918945
-148.206787 371.175720 717.345581
0.000000 674.705322 144.186432
0.000000 659.442139 21.519569
0.000000 680.494873 -114.901505
0.000000 677.588013 -209.343933
0.000000 662.451782 -253.749756
0.000000 619.927368 -307.605072
0.000000 306.693176 -355.725189
0.000000 282.978760 -335.986023
0.000000 386.651550 -381.947906
0.000000 452.129333 -373.061371
0.000000 464.639008 -375.535736
0.000000 548.165222 -365.281372
0.000000 518.615662 -399.860443
0.000000 487.902100 -415.659485
0.000000 470.975586 -417.727692
0.000000 412.627502 -416.541016
0.000000 420.618774 -400.237640
0.000000 468.681763 -389.056061
0.000000 470.368866 -385.914642
0.000000 400.649750 232.339508
0.000000 347.050842 206.288391
0.000000 325.252075 178.899506
0.000000 313.806885 117.932831
0.000000 314.837463 137.754272
0.000000 319.189819 159.624985
0.000000 269.879456 -59.536957
0.000000 282.266632 -6.034477
0.000000 297.798676 51.131927
0.000000 260.412598 -228.332947
0.000000 358.095825 -417.698120
0.000000 358.767883 -407.076111
0.000000 320.548431 -416.855591
0.000000 320.728119 -408.190948
0.000000 264.678802 -402.953827
0.000000 264.655396 -410.283264
0.000000 222.839462 -394.393463
0.000000 220.736511 -402.430603
0.000000 194.609314 -395.416138
0.000000 195.844925 -389.740295
0.000000 590.681274 457.055023
0.000000 640.005554 429.823761
0.000000 679.878784 348.259949
0.000000 668.416504 190.709930
0.000000 652.424377 233.459885
0.000000 651.805298 253.958023
0.000000 680.161011 329.351013
0.000000 428.164734 323.170593
0.000000 400.098724 454.754395
0.000000 406.014984 256.838745
0.000000 421.577759 269.887939
0.000000 663.574707 285.522308
0.000000 191.588745 -393.203400
0.000000 192.143539 -389.721771
0.000000 190.525833 -391.550476
0.000000 410.218842 379.853394
0.000000 365.601990 426.700714
0.000000 384.466461 414.494141
3.499443 362.597076 435.303223
0.000000 360.711639 437.529083
0.000000 358.145355 433.967712
0.000000 359.026581 431.397980
0.000000 359.140442 436.638733
0.000000 372.866119 423.227142
0.000000 408.493378 434.260864
28.561386 680.828491 152.769043
89.147934 617.291870 8.004128
96.425346 630.883789 -225.567169
116.623894 563.952209 189.125305
135.253036 498.373596 -205.083496
102.284485 378.783508 48.076321
68.635033 167.411774 -317.269745
96.345901 507.969360 -346.729340
31.685234 491.952789 -389.875305
10.539116 450.210785 -412.170105
14.840648 470.856445 -392.668488
9.770735 472.211578 -386.184265
116.521805 178.172684 154.520325
101.803406 173.197296 113.135895
55.110474 461.715881 228.562622
29.197432 416.091888 232.177322
54.124645 341.445679 204.883423
22.852367 323.534698 168.565872
84.888359 269.782104 -192.991913
47.324020 200.793472 -307.052338
29.879377 260.380920 -316.286987
20.908667 256.221558 -244.277130
62.163719 156.204163 -253.238617
62.163738 176.986816 173.840515
56.963161 169.769424 121.614166
43.459377 310.782928 57.872765
83.565216 2.812408 87.586609
119.566643 53.798767 153.346359
120.825768 27.622589 189.236847
132.673050 32.518005 172.354477
100.340591 57.047668 168.625092
35.022182 3.596130 114.613876
49.711658 51.683380 162.079895
48.979992 13.613007 192.654083
80.733612 25.959442 204.418716
126.390030 2.812408 102.117195
129.353973 2.812408 183.618622
80.694801 2.812408 207.141617
109.345688 2.812408 201.640762
54.500790 2.812408 197.025269
37.963989 2.812408 156.271210
139.499969 2.812408 146.296692
3.631164 358.617462 -409.063477
57.757877 427.477478 486.621735
66.305794 450.091858 460.693939
72.430794 460.165649 446.856262
47.409939 647.614136 276.093872
36.704021 552.561401 468.196411
83.166336 462.374969 282.517426
97.794746 548.457275 427.954742
72.193176 537.422913 451.219727
68.373138 426.302185 310.172607
77.928581 491.388367 391.080841
77.033066 517.108643 416.937897
95.374550 515.711792 392.263123
105.212822 520.682190 367.848602
87.732895 523.537720 399.655945
84.234589 524.386841 406.262543
84.769745 431.200195 461.652008
57.775162 414.015961 490.634369
74.483322 462.666901 387.797546
83.963806 439.915405 441.301392
55.741165 407.134583 490.437347
48.314449 391.637878 482.220612
39.757469 395.107086 481.343567
101.927597 524.532593 289.449036
82.183266 594.307739 237.627914
71.702682 671.114136 371.912689
119.746429 630.880615 313.814209
98.411400 565.605469 308.700073
79.552818 657.672974 319.828979
97.803490 662.251343 369.554565
105.080696 646.188416 367.574463
117.992828 633.772278 360.118774
79.021889 666.386292 376.674713
124.450096 299.812317 86.423988
93.567039 287.448730 69.341545
78.712456 171.689362 96.333069
87.672211 515.497437 404.092529
142.125198 487.190826 75.761795
54.375797 387.937256 444.369385
85.685417 409.201599 479.704407
75.063766 396.528595 444.140350
72.064491 403.284302 486.151031
55.174248 386.216644 471.262787
92.361580 598.479614 358.234436
87.489281 406.573090 463.900604
82.037880 406.060242 475.072571
84.995010 402.431366 455.035065
74.360077 397.155579 449.641205
63.094547 391.059723 453.824066
72.155159 402.082642 479.629272
64.321938 394.400360 477.144409
60.365757 388.976166 466.250458
1.504729 192.970337 -391.704651
26.869917 399.271179 427.409149
7.880798 375.080566 429.976166
0.000000 519.736877 501.326874
65.431923 471.750336 453.331879
59.693134 486.968262 469.050507
49.102673 503.374390 485.327179
0.000000 394.447510 473.427734
0.000000 271.682587 -127.661087
0.000000 275.780365 -180.105072
0.000000 269.623871 -203.846863
0.000000 259.270508 -244.079498
0.000000 263.265289 -283.019745
0.000000 269.925720 -317.727051
109.488457 53.266907 111.529510
84.580719 50.753479 94.974091
50.518833 50.401581 114.022522
134.554459 368.699158 177.532349
101.841042 55.608490 -266.554230
98.785851 2.812439 -321.523987
91.762856 53.266937 -312.111664
82.614990 57.047699 -244.255707
91.918777 164.786652 -267.169952
91.037750 165.903214 -304.247284
52.195866 52.106079 -328.667084
65.839615 2.812439 -336.054565
114.947449 32.518036 -251.286713
121.774368 2.812439 -277.344482
111.628372 2.812439 -240.022552
103.100166 27.622620 -234.404327
91.620087 2.812439 -222.000397
63.008007 25.959473 -219.222443
20.238386 2.812439 -267.369965
31.986055 51.683411 -253.584595
26.654669 2.812439 -309.027313
31.254389 13.613037 -230.987091
36.775185 2.812439 -226.615906
62.969196 2.812439 -216.499542
32.038773 52.228394 -309.618652
126.084244 371.670807 -159.708084
139.331024 364.170563 -280.618439
129.495178 357.771454 -216.346008
178.559692 521.329956 -125.311584
50.741852 379.704468 -369.854065
126.098862 491.326019 -299.065491
25.699888 85.600800 -308.335480
39.776405 673.907227 331.222168
77.348427 578.127563 439.451477
0.000000 389.291992 486.090851
53.197598 417.579498 504.358887
0.000000 330.902405 571.212524
0.000000 396.047028 561.760254
0.000000 448.367249 543.600098
0.000000 321.122803 506.096130
0.000000 366.578491 493.328552
0.000000 380.585266 487.656494
0.000000 267.242859 572.588379
0.000000 264.636108 514.555420
0.000000 211.547058 566.812988
0.000000 214.041687 515.471313
0.000000 163.338455 556.453003
0.000000 168.880386 511.701508
0.000000 123.445633 543.892090
0.000000 128.865707 504.205658
0.000000 88.772095 529.737183
0.000000 95.004730 494.096680
0.000000 60.432281 512.184814
0.000000 76.766418 484.694214
0.000000 44.941895 485.530060
0.000000 67.669769 470.122314
0.000000 41.181000 460.585022
0.000000 66.030304 456.359985
0.000000 46.149750 438.815735
0.000000 67.915985 446.862457
0.000000 50.750610 425.787476
0.000000 71.117798 439.923950
0.000000 53.089813 422.642944
0.000000 71.009399 436.437805
0.000000 55.499329 424.193329
0.000000 69.540802 436.470398
40.318222 323.123749 514.340576
44.910927 374.415741 507.571686
35.962704 330.110870 547.104858
39.266464 389.826355 539.846375
39.321838 436.194061 526.118530
42.576550 379.890869 485.175507
35.673855 364.374329 490.916351
32.409584 320.630798 503.137512
31.128992 262.814819 516.546265
31.120661 267.396942 550.957947
26.104368 212.173584 516.899048
26.217802 214.731186 547.603699
21.585955 166.665604 513.017090
21.755678 165.012177 540.377319
17.811789 128.329285 505.388031
18.029829 127.116852 530.179321
14.884996 95.121552 494.605957
15.121249 92.141266 516.896851
13.721362 76.612671 484.731659
13.961364 67.320435 502.436493
12.503607 67.766357 469.977448
12.746117 54.042847 480.469910
11.684473 66.317017 456.185638
11.929141 50.868683 459.775146
11.238026 69.033691 446.305969
11.482570 54.426880 442.698792
11.532056 71.943146 439.734772
11.768776 57.081177 435.891022
10.756892 71.728729 436.944397
11.010005 58.284698 433.492401
9.039405 69.993774 437.114563
9.558839 58.987793 434.598755
112.880119 371.152161 -355.810730
-3.499443 362.597076 435.303223
-28.561386 680.828491 152.769043
-89.147926 617.291870 8.004128
-96.425339 630.883789 -225.567169
-116.623886 563.952209 189.125305
-135.253036 498.373596 -205.083496
-102.284477 378.783508 48.076321
-68.635025 167.411774 -317.269745
-96.345894 507.969360 -346.729340
-31.685234 491.952789 -389.875305
-10.539116 450.210785 -412.170105
-14.840648 470.856445 -392.668488
-9.770735 472.211578 -386.184265
-116.521797 178.172684 154.520325
-101.803398 173.197296 113.135895
-55.110477 461.715881 228.562622
-29.197432 416.091888 232.177322
-54.124649 341.445679 204.883423
-22.852367 323.534698 168.565872
-84.888351 269.782104 -192.991913
-47.324024 200.793472 -307.052338
-29.879377 260.380920 -316.286987
-20.908667 256.221558 -244.277130
-62.163723 156.204163 -253.238617
-62.163742 176.986816 173.840515
-56.963165 169.769424 121.614166
-43.459381 310.782928 57.872765
-83.565208 2.812408 87.586609
-119.566635 53.798767 153.346359
-120.825760 27.622589 189.236847
-132.673050 32.518005 172.354477
-100.340584 57.047668 168.625092
-35.022186 3.596130 114.613876
-49.711662 51.683380 162.079895
-48.979996 13.613007 192.654083
-80.733604 25.959442 204.418716
-126.390022 2.812408 102.117195
-129.353973 2.812408 183.618622
-80.694794 2.812408 207.141617
-109.345680 2.812408 201.640762
-54.500793 2.812408 197.025269
-37.963993 2.812408 156.271210
-139.499969 2.812408 146.296692
-3.631164 358.617462 -409.063477
-57.757881 427.477478 486.621735
-66.305786 450.091858 460.693939
-72.430786 460.165649 446.856262
-47.409943 647.614136 276.093872
-36.704025 552.561401 468.196411
-83.166328 462.374969 282.517426
-97.794739 548.457275 427.954742
-72.193169 537.422913 451.219727
-68.373131 426.302185 310.172607
-77.928574 491.388367 391.080841
-77.033058 517.108643 416.937897
-95.374542 515.711792 392.263123
-105.212814 520.682190 367.848602
-87.732887 523.537720 399.655945
-84.234581 524.386841 406.262543
-84.769737 431.200195 461.652008
-57.775166 414.015961 490.634369
-74.483315 462.666901 387.797546
-83.963799 439.915405 441.301392
-55.741169 407.134583 490.437347
-48.314453 391.637878 482.220612
-39.757473 395.107086 481.343567
-101.927589 524.532593 289.449036
-82.183258 594.307739 237.627914
-71.702675 671.114136 371.912689
-119.746422 630.880615 313.814209
-98.411392 565.605469 308.700073
-79.552811 657.672974 319.828979
-97.803482 662.251343 369.554565
-105.080688 646.188416 367.574463
-117.992821 633.772278 360.118774
-79.021881 666.386292 376.674713
-124.450089 299.812317 86.423988
-93.567032 287.448730 69.341545
-78.712448 171.689362 96.333069
-87.672203 515.497437 404.092529
-142.125198 487.190826 75.761795
-54.375801 387.937256 444.369385
-85.685410 409.201599 479.704407
-75.063759 396.528595 444.140350
-72.064484 403.284302 486.151031
-55.174252 386.216644 471.262787
-92.361572 598.479614 358.234436
-87.489273 406.573090 463.900604
-82.037872 406.060242 475.072571
-84.995003 402.431366 455.035065
-74.360069 397.155579 449.641205
-63.094551 391.059723 453.824066
-72.155151 402.082642 479.629272
-64.321930 394.400360 477.144409
-60.365761 388.976166 466.250458
-1.504729 192.970337 -391.704651
-26.869917 399.271179 427.409149
-7.880797 375.080566 429.976166
-65.431915 471.750336 453.331879
-59.693138 486.968262 469.050507
-49.102676 503.374390 485.327179
-109.488449 53.266907 111.529510
-84.580711 50.753479 94.974091
-50.518837 50.401581 114.022522
-134.554459 368.699158 177.532349
-101.841034 55.608490 -266.554230
-98.785835 2.812439 -321.523987
-91.762848 53.266937 -312.111664
-82.614983 57.047699 -244.255707
-91.918770 164.786652 -267.169952
-91.037743 165.903214 -304.247284
-52.195869 52.106079 -328.667084
-65.839607 2.812439 -336.054565
-114.947441 32.518036 -251.286713
-121.774361 2.812439 -277.344482
-111.628365 2.812439 -240.022552
-103.100159 27.622620 -234.404327
-91.620079 2.812439 -222.000397
-63.008011 25.959473 -219.222443
-20.238386 2.812439 -267.369965
-31.986055 51.683411 -253.584595
-26.654669 2.812439 -309.027313
-31.254389 13.613037 -230.987091
-36.775188 2.812439 -226.615906
-62.969200 2.812439 -216.499542
-32.038776 52.228394 -309.618652
-126.084236 371.670807 -159.708084
-139.331024 364.170563 -280.618439
-129.495178 357.771454 -216.346008
-178.559692 521.329956 -125.311584
-50.741856 379.704468 -369.854065
-126.098854 491.326019 -299.065491
-25.699888 85.600800 -308.335480
-39.776409 673.907227 331.222168
-77.348419 578.127563 439.451477
-53.197601 417.579498 504.358887
-40.318226 323.123749 514.340576
-44.910931 374.415741 507.571686
-35.962708 330.110870 547.104858
-39.266468 389.826355 539.846375
-39.321842 436.194061 526.118530
-42.576553 379.890869 485.175507
-35.673859 364.374329 490.916351
-32.409588 320.630798 503.137512
-31.128992 262.814819 516.546265
-31.120661 267.396942 550.957947
-26.104368 212.173584 516.899048
-26.217802 214.731186 547.603699
-21.585955 166.665604 513.017090
-21.755678 165.012177 540.377319
-17.811789 128.329285 505.388031
-18.029829 127.116852 530.179321
-14.884996 95.121552 494.605957
-15.121249 92.141266 516.896851
-13.721362 76.612671 484.731659
-13.961364 67.320435 502.436493
-12.503607 67.766357 469.977448
-12.746117 54.042847 480.469910
-11.684473 66.317017 456.185638
-11.929141 50.868683 459.775146
-11.238026 69.033691 446.305969
-11.482570 54.426880 442.698792
-11.532056 71.943146 439.734772
-11.768776 57.081177 435.891022
-10.756892 71.728729 436.944397
-11.010005 58.284698 433.492401
-9.039405 69.993774 437.114563
-9.558839 58.987793 434.598755
-112.880112 371.152161 -355.810730
83.166336 462.374969 282.517426
97.803490 662.251343 369.554565
79.021889 666.386292 376.674713
71.702682 671.114136 371.912689
86.375710 688.534546 351.013245
71.041710 678.234863 364.105988
89.965607 597.799927 316.320465
98.411423 565.605469 308.700073
101.927597 524.532593 289.449036
223.745453 617.214966 252.629211
263.779053 603.554077 111.231125
250.851547 565.993835 117.612213
250.153976 692.800903 231.157837
119.746429 625.196045 322.051086
105.080696 646.188416 367.574463
154.985229 658.576416 332.510071
200.347290 698.369263 295.631378
229.934494 703.016418 255.213852
174.806488 714.569336 301.024475
124.796967 690.498535 335.785156
117.839737 696.844116 329.868256
95.352585 457.567444 275.603210
96.982460 444.826904 269.866760
234.951843 542.151672 122.796227
94.138756 428.036285 264.856140
100.976105 401.472992 242.941208
136.378464 448.177368 250.506012
165.012772 528.794556 247.697281
211.981293 523.431274 131.970963
117.992828 633.772278 360.118774
273.383362 653.040894 132.604462
266.934570 628.560059 118.617035
246.283127 699.169312 221.285507
208.589951 710.134399 260.576599
181.199646 712.553772 272.422424
162.155991 711.845215 282.709442
149.180008 711.340088 296.747589
132.867691 703.030273 309.399963
99.128807 374.954041 230.420349
126.651459 384.494080 220.204956
144.220947 395.410858 207.701462
173.386261 448.508972 173.954041
190.554718 464.418640 167.773285
194.502914 488.440857 151.411835
-83.166328 462.374969 282.517426
-97.803482 662.251343 369.554565
-79.021881 666.386292 376.674713
-71.702675 671.114136 371.912689
-86.375702 688.534546 351.013245
-71.041702 678.234863 364.105988
-89.965599 597.799927 316.320465
-98.411415 565.605469 308.700073
-101.927589 524.532593 289.449036
-223.745453 617.214966 252.629211
-263.779053 603.554077 111.231125
-250.851547 565.993835 117.612213
-250.153976 692.800903 231.157837
-119.746422 625.196045 322.051086
-105.080688 646.188416 367.574463
-154.985229 658.576416 332.510071
-200.347290 698.369263 295.631378
-229.934494 703.016418 255.213852
-174.806488 714.569336 301.024475
-124.796959 690.498535 335.785156
-117.839729 696.844116 329.868256
-95.352577 457.567444 275.603210
-96.982452 444.826904 269.866760
-234.951843 542.151672 122.796227
-94.138748 428.036285 264.856140
-100.976097 401.472992 242.941208
-136.378464 448.177368 250.506012
-165.012772 528.794556 247.697281
-211.981293 523.431274 131.970963
-117.992821 633.772278 360.118774
-273.383362 653.040894 132.604462
-266.934570 628.560059 118.617035
-246.283127 699.169312 221.285507
-208.589951 710.134399 260.576599
-181.199646 712.553772 272.422424
-162.155991 711.845215 282.709442
-149.180008 711.340088 296.747589
-132.867691 703.030273 309.399963
-99.128799 374.954041 230.420349
-126.651451 384.494080 220.204956
-144.220947 395.410858 207.701462
-173.386261 448.508972 173.954041
-190.554718 464.418640 167.773285
-194.502914 488.440857 151.411835
0.000000 54.705750 448.371765
142.979660 432.121704 53.944386
142.259354 433.763885 -188.649475
172.123810 430.795349 -110.045517
-142.979660 432.121704 53.944386
-172.123810 430.795349 -110.045517
-143.964798 430.321655 -184.622345
3 0 2 1
3 0 3 2
3 0 4 3
3 0 5 4
3 0 6 5
3 0 1 6
3 1 8 7
3 1 2 8
3 2 9 8
3 2 3 9
3 3 10 9
3 3 4 10
3 4 11 10
3 4 5 11
3 5 12 11
3 5 6 12
3 6 7 12
3 6 1 7
3 7 14 13
3 7 8 14
3 8 15 14
3 8 9 15
3 9 16 15
3 9 10 16
3 10 17 16
3 10 11 17
3 11 18 17
3 11 12 18
3 12 13 18
3 12 7 13
3 13 20 19
3 13 14 20
3 14 21 20
3 14 15 21
3 15 22 21
3 15 16 22
3 16 23 22
3 16 17 23
3 17 24 23
3 17 18 24
3 18 19 24
3 18 13 19
3 19 26 25
3 19 20 26
3 20 27 26
3 20 21 27
3 21 28 27
3 21 22 28
3 22 29 28
3 22 23 29
3 23 30 29
3 23 24 30
3 24 25 30
3 24 19 25
3 25 32 31
3 25 26 32
3 26 33 32
3 26 27 33
3 27 34 33
3 27 28 34
3 28 35 34
3 28 29 35
3 29 36 35
3 29 30 36
3 30 31 36
3 30 25 31
3 31 38 37
3 31 32 38
3 32 39 38
3 32 33 39
3 33 40 39
3 33 34 40
3 34 41 40
3 34 35 41
3 35 42 41
3 35 36 42
3 36 37 42
3 36 31 37
3 43 37 38
3 43 38 39
3 43 39 40
3 43 40 41
3 43 41 42
3 43 42 37
3 46 44 45
3 47 44 46
3 48 44 47
3 49 44 48
3 50 44 49
3 45 44 50
3 52 45 51
3 46 45 52
3 53 46 52
3 47 46 53
3 54 47 53
3 48 47 54
3 55 48 54
3 49 48 55
3 56 49 55
3 50 49 56
3 51 50 56
3 45 50 51
3 58 51 57
3 52 51 58
3 59 52 58
3 53 52 59
3 60 53 59
3 54 53 60
3 61 54 60
3 55 54 61
3 62 55 61
3 56 55 62
3 57 56 62
3 51 56 57
3 64 57 63
3 58 57 64
3 65 58 64
3 59 58 65
3 66 59 65
3 60 59 66
3 67 60 66
3 61 60 67
3 68 61 67
3 62 61 68
3 63 62 68
3 57 62 63
3 70 63 69
3 64 63 70
3 71 64 70
3 65 64 71
3 72 65 71
3 66 65 72
3 73 66 72
3 67 66 73
3 74 67 73
3 68 67 74
3 69 68 74
3 63 68 69
3 76 69 75
3 70 69 76
3 77 70 76
3 71 70 77
3 78 71 77
3 72 71 78
3 79 72 78
3 73 72 79
3 80 73 79
3 74 73 80
3 75 74 80
3 69 74 75
3 82 75 81
3 76 75 82
3 83 76 82
3 77 76 83
3 84 77 83
3 78 77 84
3 85 78 84
3 79 78 85
3 86 79 85
3 80 79 86
3 81 80 86
3 75 80 81
3 81 87 82
3 82 87 83
3 83 87 84
3 84 87 85
3 85 87 86
3 86 87 81
3 148 145 147
3 145 149 147
3 145 146 149
3 148 143 145
3 150 248 143
3 153 89 152
3 89 153 90
3 154 92 91
3 154 93 92
3 231 153 155
3 88 152 89
3 90 153 154
3 154 91 90
3 154 159 93
3 164 227 263
3 285 157 170
3 288 153 231
3 288 156 154
3 170 174 268
3 154 290 159
3 358 286 269
3 285 170 287
3 97 159 96
3 358 158 289
3 159 358 289
3 289 171 172
3 160 97 163
3 97 160 159
3 100 99 160
3 101 161 102
3 161 103 102
3 99 159 160
3 159 99 93
3 100 161 101
3 160 161 100
3 103 161 194
3 117 103 194
3 162 194 161
3 163 162 160
3 161 160 162
3 194 162 104
3 105 104 162
3 106 105 163
3 162 163 105
3 106 163 98
3 227 164 165
3 179 187 260
3 228 227 229
3 227 228 617
3 177 157 228
3 107 168 167
3 168 107 108
3 169 168 109
3 108 109 168
3 175 164 168
3 110 177 176
3 111 176 175
3 169 112 111
3 254 255 170
3 170 113 254
3 170 114 113
3 109 112 169
3 115 177 110
3 114 177 115
3 170 177 114
3 256 170 255
3 173 171 174
3 172 171 173
3 170 173 174
3 173 256 116
3 257 173 116
3 258 173 257
3 172 173 258
3 172 258 259
3 172 259 95
3 170 256 173
3 175 182 164
3 176 177 229
3 165 260 261
3 110 176 111
3 175 169 111
3 178 261 260
3 177 228 229
3 169 175 168
3 167 168 166
3 97 98 163
3 178 260 187
3 179 181 193
3 188 193 181
3 182 180 181
3 180 190 188
3 180 188 181
3 180 182 186
3 192 184 183
3 186 184 185
3 191 185 192
3 186 182 184
3 189 186 185
3 185 191 189
3 192 185 184
3 180 186 190
3 190 186 189
3 188 190 193
3 189 191 192
3 192 190 189
3 193 190 192
3 183 178 187
3 192 183 187
3 192 187 193
3 179 193 187
3 181 179 182
3 164 179 260
3 182 179 164
3 261 178 183
3 262 183 184
3 183 262 261
3 184 182 175
3 117 194 120
3 194 104 118
3 120 119 117
3 194 118 120
3 120 122 119
3 121 122 120
3 122 121 123
3 123 124 122
3 124 123 246
3 246 125 124
3 126 246 123
3 166 168 263
3 218 166 155
3 230 205 251
3 293 127 199
3 88 130 152
3 131 152 130
3 218 132 198
3 132 138 198
3 249 199 127
3 202 199 252
3 201 199 202
3 212 203 200
3 202 205 201
3 204 207 206
3 201 209 208
3 205 230 209
3 206 208 230
3 210 213 196
3 210 233 238
3 213 197 196
3 212 197 213
3 195 210 196
3 204 197 212
3 212 213 234
3 210 195 233
3 235 233 195
3 214 235 211
3 195 211 235
3 203 137 200
3 137 203 134
3 253 135 216
3 132 218 131
3 200 218 217
3 218 200 166
3 167 166 200
3 200 137 167
3 167 137 136
3 136 107 167
3 152 218 155
3 218 152 131
3 263 168 164
3 128 219 129
3 198 138 292
3 218 220 221
3 221 217 218
3 219 223 222
3 223 224 222
3 198 292 222
3 292 219 222
3 292 129 219
3 220 224 225
3 220 198 222
3 198 220 218
3 293 224 128
3 223 226 128
3 226 219 128
3 293 201 225
3 231 227 617
3 227 165 229
3 251 205 202
3 230 204 206
3 230 251 250
3 209 201 205
3 227 231 263
3 170 157 177
3 216 135 236
3 232 236 151
3 236 215 216
3 214 215 235
3 236 244 215
3 235 215 244
3 221 220 237
3 237 207 221
3 217 221 207
3 207 237 201
3 217 207 200
3 200 207 204
3 225 201 237
3 237 220 225
3 293 225 224
3 224 223 128
3 207 201 208
3 208 206 207
3 239 238 233
3 238 240 210
3 240 213 210
3 240 241 213
3 234 213 241
3 232 234 241
3 241 242 232
3 233 235 243
3 243 239 233
3 242 245 232
3 236 232 245
3 244 236 245
3 235 244 243
3 246 139 125
3 246 126 140
3 139 246 141
3 246 140 141
3 155 153 152
3 288 617 619
3 203 212 247
3 134 203 142
3 203 247 142
3 142 247 144
3 145 248 247
3 144 247 248
3 145 247 151
3 248 145 143
3 248 150 144
3 135 151 236
3 232 212 234
3 247 212 232
3 208 209 230
3 212 200 204
3 95 289 172
3 289 95 94
3 250 197 204
3 230 250 204
3 251 202 252
3 199 249 252
3 247 232 151
3 260 165 164
3 165 261 229
3 229 261 262
3 175 262 184
3 262 176 229
3 262 175 176
3 155 263 231
3 166 263 155
3 264 265 266
3 174 267 268
3 269 266 270
3 271 270 266
3 271 266 265
3 264 272 273
3 274 273 272
3 267 275 272
3 275 276 274
3 275 274 272
3 275 267 277
3 278 279 280
3 277 279 281
3 282 281 278
3 277 267 279
3 283 277 281
3 281 282 283
3 278 281 279
3 275 277 276
3 276 277 283
3 274 276 273
3 283 282 278
3 278 276 283
3 273 276 278
3 280 271 265
3 278 280 265
3 278 265 273
3 264 273 265
3 272 264 267
3 269 268 264
3 267 264 268
3 270 271 280
3 284 280 279
3 280 284 270
3 279 267 174
3 264 266 269
3 269 270 158
3 270 284 291
3 279 291 284
3 291 158 270
3 291 279 174
3 220 222 224
3 219 226 223
3 286 287 268
3 268 269 286
3 287 170 268
3 288 231 617
3 269 158 358
3 286 358 290
3 618 286 290
3 285 287 618
3 154 153 288
3 619 618 156
3 159 289 96
3 94 96 289
3 156 290 154
3 287 286 618
3 158 291 171
3 291 174 171
3 133 292 138
3 129 292 133
3 201 293 199
3 128 127 293
3 211 295 214
3 195 295 211
3 253 216 294
3 215 294 216
3 251 295 195
3 195 196 251
3 250 251 196
3 196 197 250
3 329 328 327
3 326 327 328
3 295 330 329
3 329 327 295
3 295 327 214
3 252 330 251
3 295 251 330
3 328 329 296
3 297 296 329
3 297 330 298
3 330 297 329
3 330 252 298
3 249 298 252
3 332 331 327
3 214 327 331
3 326 332 327
3 333 332 326
3 300 332 299
3 333 299 332
3 301 331 300
3 332 300 331
3 214 331 215
3 294 215 301
3 215 331 301
3 326 328 335
3 335 334 326
3 328 296 302
3 302 335 328
3 333 326 334
3 299 333 334
3 334 303 299
3 334 335 337
3 337 336 334
3 335 302 304
3 304 337 335
3 303 334 336
3 336 305 303
3 336 337 339
3 339 338 336
3 337 304 306
3 306 339 337
3 305 336 338
3 338 307 305
3 338 339 341
3 341 340 338
3 339 306 308
3 308 341 339
3 307 338 340
3 340 309 307
3 340 341 343
3 343 342 340
3 341 308 310
3 310 343 341
3 309 340 342
3 342 311 309
3 342 343 345
3 345 344 342
3 343 310 312
3 312 345 343
3 311 342 344
3 344 313 311
3 344 345 347
3 347 346 344
3 345 312 314
3 314 347 345
3 313 344 346
3 346 315 313
3 346 347 349
3 349 348 346
3 347 314 316
3 316 349 347
3 315 346 348
3 348 317 315
3 348 349 351
3 351 350 348
3 349 316 318
3 318 351 349
3 317 348 350
3 350 319 317
3 350 351 353
3 353 352 350
3 351 318 320
3 320 353 351
3 319 350 352
3 352 321 319
3 352 353 355
3 355 354 352
3 353 320 322
3 322 355 353
3 321 352 354
3 354 323 321
3 354 355 357
3 357 356 354
3 324 357 355
3 355 322 324
3 323 354 356
3 356 325 323
3 146 145 151
3 171 289 158
3 159 290 358
3 359 148 147
3 149 359 147
3 146 359 149
3 143 148 359
3 456 150 143
3 89 361 360
3 361 89 90
3 92 362 91
3 93 362 92
3 361 439 363
3 360 88 89
3 361 90 362
3 91 362 90
3 367 362 93
3 435 372 463
3 365 485 378
3 361 488 439
3 364 488 362
3 382 378 468
3 490 362 367
3 486 527 469
3 378 485 487
3 367 97 96
3 366 527 489
3 527 367 489
3 379 489 380
3 97 368 371
3 368 97 367
3 99 100 368
3 369 101 102
3 103 369 102
3 367 99 368
3 99 367 93
3 369 100 101
3 369 368 100
3 369 103 402
3 103 117 402
3 402 370 369
3 370 371 368
3 368 369 370
3 370 402 104
3 104 105 370
3 105 106 371
3 371 370 105
3 371 106 98
3 372 435 373
3 395 387 460
3 435 436 437
3 436 435 620
3 365 385 436
3 376 107 375
3 107 376 108
3 376 377 109
3 109 108 376
3 372 383 376
3 385 110 384
3 384 111 383
3 112 377 111
3 255 254 378
3 113 378 254
3 114 378 113
3 112 109 377
3 385 115 110
3 385 114 115
3 385 378 114
3 378 256 255
3 379 381 382
3 379 380 381
3 381 378 382
3 256 381 116
3 381 257 116
3 381 258 257
3 381 380 258
3 258 380 259
3 259 380 95
3 256 378 381
3 390 383 372
3 385 384 437
3 460 373 461
3 384 110 111
3 377 383 111
3 461 386 460
3 436 385 437
3 383 377 376
3 376 375 374
3 98 97 371
3 460 386 395
3 389 387 401
3 401 396 389
3 388 390 389
3 398 388 396
3 396 388 389
3 390 388 394
3 392 400 391
3 392 394 393
3 393 399 400
3 390 394 392
3 394 397 393
3 399 393 397
3 393 400 392
3 394 388 398
3 394 398 397
3 398 396 401
3 399 397 400
3 398 400 397
3 398 401 400
3 386 391 395
3 391 400 395
3 395 400 401
3 401 387 395
3 387 389 390
3 387 372 460
3 387 390 372
3 386 461 391
3 391 462 392
3 462 391 461
3 390 392 383
3 402 117 120
3 104 402 118
3 119 120 117
3 118 402 120
3 122 120 119
3 122 121 120
3 121 122 123
3 124 123 122
3 123 124 454
3 125 454 124
3 454 126 123
3 376 374 463
3 374 426 363
3 413 438 458
3 127 493 407
3 130 88 360
3 360 131 130
3 132 426 406
3 138 132 406
3 407 249 127
3 407 410 459
3 407 409 410
3 411 420 408
3 413 410 409
3 415 412 414
3 417 409 416
3 438 413 417
3 416 414 438
3 421 418 404
3 441 418 446
3 405 421 404
3 405 420 421
3 418 403 404
3 405 412 420
3 421 420 442
3 403 418 441
3 441 443 403
3 443 422 419
3 419 403 443
3 137 411 408
3 411 137 134
3 135 253 424
3 426 132 131
3 426 408 425
3 408 426 374
3 374 375 408
3 137 408 375
3 137 375 136
3 107 136 375
3 426 360 363
3 360 426 131
3 376 463 372
3 427 128 129
3 138 406 492
3 428 426 429
3 425 429 426
3 431 427 430
3 432 431 430
3 492 406 430
3 427 492 430
3 129 492 427
3 432 428 433
3 406 428 430
3 428 406 426
3 432 493 128
3 434 431 128
3 427 434 128
3 409 493 433
3 435 439 620
3 373 435 437
3 413 458 410
3 412 438 414
3 458 438 457
3 409 417 413
3 439 435 463
3 365 378 385
3 135 424 444
3 444 440 151
3 423 444 424
3 423 422 443
3 452 444 423
3 423 443 452
3 428 429 445
3 415 445 429
3 429 425 415
3 445 415 409
3 415 425 408
3 415 408 412
3 409 433 445
3 428 445 433
3 433 493 432
3 431 432 128
3 409 415 416
3 414 416 415
3 446 447 441
3 448 446 418
3 421 448 418
3 449 448 421
3 421 442 449
3 442 440 449
3 450 449 440
3 443 441 451
3 447 451 441
3 453 450 440
3 440 444 453
3 444 452 453
3 452 443 451
3 139 454 125
3 126 454 140
3 454 139 141
3 140 454 141
3 361 363 360
3 620 488 621
3 420 411 455
3 411 134 142
3 455 411 142
3 455 142 144
3 456 359 455
3 455 144 456
3 455 359 151
3 359 456 143
3 150 456 144
3 151 135 444
3 420 440 442
3 420 455 440
3 417 416 438
3 408 420 412
3 489 95 380
3 95 489 94
3 405 457 412
3 457 438 412
3 410 458 459
3 249 407 459
3 440 455 151
3 373 460 372
3 461 373 437
3 461 437 462
3 462 383 392
3 384 462 437
3 383 462 384
3 463 363 439
3 463 374 363
3 465 464 466
3 467 382 468
3 466 469 470
3 470 471 466
3 466 471 465
3 472 464 473
3 473 474 472
3 475 467 472
3 476 475 474
3 474 475 472
3 467 475 477
3 479 478 480
3 479 477 481
3 481 482 478
3 467 477 479
3 477 483 481
3 482 481 483
3 481 478 479
3 477 475 476
3 477 476 483
3 476 474 473
3 482 483 478
3 476 478 483
3 476 473 478
3 471 480 465
3 480 478 465
3 465 478 473
3 473 464 465
3 464 472 467
3 468 469 464
3 464 467 468
3 471 470 480
3 480 484 479
3 484 480 470
3 467 479 382
3 466 464 469
3 470 469 366
3 484 470 491
3 491 479 484
3 366 491 470
3 479 491 382
3 430 428 432
3 434 427 431
3 487 486 468
3 469 468 486
3 378 487 468
3 439 488 620
3 366 469 527
3 527 486 490
3 486 622 490
3 621 622 485
3 361 362 488
3 621 488 364
3 489 367 96
3 96 94 489
3 490 364 362
3 622 486 487
3 491 366 379
3 382 491 379
3 492 133 138
3 492 129 133
3 493 409 407
3 127 128 493
3 494 419 422
3 494 403 419
3 424 253 294
3 294 423 424
3 494 458 403
3 404 403 458
3 458 457 404
3 405 404 457
3 497 498 496
3 496 495 497
3 499 494 498
3 496 498 494
3 496 494 422
3 499 459 458
3 458 494 499
3 498 497 296
3 296 297 498
3 499 297 298
3 297 499 498
3 459 499 298
3 298 249 459
3 500 501 496
3 496 422 500
3 501 495 496
3 501 502 495
3 501 300 299
3 299 502 501
3 500 301 300
3 300 501 500
3 500 422 423
3 423 294 301
3 500 423 301
3 497 495 504
3 503 504 495
3 296 497 302
3 504 302 497
3 495 502 503
3 502 299 503
3 303 503 299
3 504 503 506
3 505 506 503
3 302 504 304
3 506 304 504
3 503 303 505
3 305 505 303
3 506 505 508
3 507 508 505
3 304 506 306
3 508 306 506
3 505 305 507
3 307 507 305
3 508 507 510
3 509 510 507
3 306 508 308
3 510 308 508
3 507 307 509
3 309 509 307
3 510 509 512
3 511 512 509
3 308 510 310
3 512 310 510
3 509 309 511
3 311 511 309
3 512 511 514
3 513 514 511
3 310 512 312
3 514 312 512
3 511 311 513
3 313 513 311
3 514 513 516
3 515 516 513
3 312 514 314
3 516 314 514
3 513 313 515
3 315 515 313
3 516 515 518
3 517 518 515
3 314 516 316
3 518 316 516
3 515 315 517
3 317 517 315
3 518 517 520
3 519 520 517
3 316 518 318
3 520 318 518
3 517 317 519
3 319 519 317
3 520 519 522
3 521 522 519
3 318 520 320
3 522 320 520
3 519 319 521
3 321 521 319
3 522 521 524
3 523 524 521
3 320 522 322
3 524 322 522
3 521 321 523
3 323 523 321
3 524 523 526
3 525 526 523
3 526 324 524
3 322 524 324
3 523 323 525
3 325 525 323
3 359 146 151
3 489 379 366
3 490 367 527
3 532 533 530
3 531 530 533
3 548 532 530
3 539 538 537
3 540 559 558
3 559 540 538
3 537 538 540
3 560 540 558
3 534 535 541
3 535 544 541
3 544 535 537
3 545 544 540
3 537 540 544
3 560 545 540
3 546 544 545
3 545 561 546
3 562 546 561
3 563 546 562
3 544 547 543
3 547 542 557
3 542 547 529
3 543 547 557
3 544 546 547
3 564 546 563
3 564 565 546
3 547 546 565
3 548 547 565
3 548 530 547
3 547 530 529
3 536 528 549
3 537 551 539
3 567 553 566
3 567 554 553
3 552 553 554
3 554 567 568
3 536 555 535
3 549 554 536
3 552 554 550
3 549 550 554
3 554 568 569
3 536 554 555
3 570 555 569
3 555 554 569
3 537 556 551
3 555 556 537
3 535 555 537
3 571 556 555
3 570 571 555
3 543 541 544
3 557 541 543
3 561 545 560
3 577 576 574
3 574 575 577
3 576 592 574
3 582 583 581
3 603 584 602
3 584 603 582
3 582 581 584
3 584 604 602
3 579 578 585
3 588 579 585
3 579 588 581
3 588 589 584
3 584 581 588
3 589 604 584
3 588 590 589
3 605 589 590
3 590 606 605
3 590 607 606
3 591 588 587
3 586 591 601
3 591 586 573
3 591 587 601
3 590 588 591
3 590 608 607
3 609 608 590
3 590 591 609
3 591 592 609
3 574 592 591
3 574 591 573
3 572 580 593
3 595 581 583
3 597 611 610
3 598 611 597
3 597 596 598
3 611 598 612
3 599 580 579
3 598 593 580
3 598 596 594
3 594 593 598
3 612 598 613
3 598 580 599
3 599 614 613
3 598 599 613
3 600 581 595
3 600 599 581
3 599 579 581
3 600 615 599
3 615 614 599
3 585 587 588
3 585 601 587
3 589 605 604
3 356 357 616
3 357 324 616
3 325 356 616
3 526 525 616
3 324 526 616
3 525 325 616
3 157 617 228
3 617 157 619
3 156 618 290
3 619 156 288
3 619 157 285
3 618 619 285
3 620 365 436
3 365 620 621
3 365 621 485
3 487 485 622
3 490 622 364
3 622 621 364
