ply
format ascii 1.0
element vertex 357
property float x
property float y
property float z
element face 604
property list uchar int vertex_index
end_header
88.211967 209.144516 88.211967
89.459999 202.500000 89.459999
126.000000 202.500000 0.000000
124.242210 209.144516 0.000000
0.000000 209.144516 124.242210
0.000000 202.500000 126.000000
88.673759 210.805649 88.673759
124.892548 210.805649 0.000000
89.659706 211.359329 89.659706
126.281258 211.359329 0.000000
0.000000 210.805649 124.892548
0.000000 211.359329 126.281258
95.850006 202.500000 95.850006
135.000000 202.500000 0.000000
0.000000 202.500000 135.000000
-88.211967 209.144516 88.211967
-89.459999 202.500000 89.459999
-124.242210 209.144516 0.000000
-126.000000 202.500000 0.000000
-88.673759 210.805649 88.673759
-89.659706 211.359329 89.659706
-124.892548 210.805649 0.000000
-126.281258 211.359329 0.000000
-95.850006 202.500000 95.850006
-135.000000 202.500000 0.000000
-88.211967 209.144516 -88.211967
-89.459999 202.500000 -89.459999
0.000000 209.144516 -124.242210
0.000000 202.500000 -126.000000
-88.673759 210.805649 -88.673759
-89.659706 211.359329 -89.659706
0.000000 210.805649 -124.892548
0.000000 211.359329 -126.281258
-95.850006 202.500000 -95.850006
0.000000 202.500000 -135.000000
88.211967 209.144516 -88.211967
89.459999 202.500000 -89.459999
88.673759 210.805649 -88.673759
89.659706 211.359329 -89.659706
95.850006 202.500000 -95.850006
127.799995 67.500000 127.799995
180.000000 67.500000 0.000000
0.000000 67.500000 180.000000
-127.799995 67.500000 127.799995
-180.000000 67.500000 0.000000
-127.799995 67.500000 -127.799995
0.000000 67.500000 -180.000000
127.799995 67.500000 -127.799995
111.824997 21.093750 111.824997
157.500000 21.093750 0.000000
95.850006 0.000000 95.850006
135.000000 0.000000 0.000000
0.000000 21.093750 157.500000
0.000000 0.000000 135.000000
-111.824997 21.093750 111.824997
-95.850006 0.000000 95.850006
-157.500000 21.093750 0.000000
-135.000000 0.000000 0.000000
-111.824997 21.093750 -111.824997
-95.850006 0.000000 -95.850006
0.000000 21.093750 -157.500000
0.000000 0.000000 -135.000000
111.824997 21.093750 -111.824997
95.850006 0.000000 -95.850006
-220.113266 168.987335 15.187500
-142.593750 171.914047 15.187500
-144.000000 168.750000 0.000000
-217.124985 166.218750 0.000000
-240.323761 162.036270 15.187500
-236.390671 160.207031 0.000000
-247.218750 148.500000 15.187500
-243.000000 148.500000 0.000000
-226.687500 175.078079 20.250000
-139.500000 178.875000 20.250000
-248.976547 166.060532 20.250000
-256.500000 148.500000 20.250000
-233.261734 181.168930 15.187500
-136.406250 185.835953 15.187500
-236.250000 183.937500 0.000000
-135.000000 188.999985 0.000000
-257.629425 170.084885 15.187500
-265.781250 148.500000 15.187500
-261.562500 171.914047 0.000000
-270.000000 148.500000 0.000000
-233.261734 181.168930 -15.187500
-136.406250 185.835953 -15.187500
-226.687500 175.078079 -20.250000
-139.500000 178.875000 -20.250000
-257.629425 170.084885 -15.187500
-265.781250 148.500000 -15.187500
-248.976547 166.060532 -20.250000
-256.500000 148.500000 -20.250000
-220.113266 168.987335 -15.187500
-142.593750 171.914047 -15.187500
-240.323761 162.036270 -15.187500
-247.218750 148.500000 -15.187500
-231.099579 105.297386 15.187500
-228.374985 108.000008 0.000000
-178.593750 63.281250 15.187500
-237.093765 99.351540 20.250000
-175.500000 54.000004 20.250000
-243.087936 93.405785 15.187500
-172.406250 44.718750 15.187500
-245.812500 90.703079 0.000000
-171.000000 40.500000 0.000000
-243.087936 93.405785 -15.187500
-172.406250 44.718750 -15.187500
-237.093765 99.351540 -20.250000
-175.500000 54.000004 -20.250000
-231.099579 105.297386 -15.187500
-178.593750 63.281250 -15.187500
199.467819 116.061745 30.169350
153.000000 103.148460 33.412498
153.000000 114.750000 0.000000
196.171921 124.664040 0.000000
219.093750 143.490250 23.034420
214.875000 148.500000 0.000000
206.718750 97.136726 40.225769
153.000000 77.625000 44.549999
228.374985 132.468750 30.712500
230.282196 175.585678 15.899400
225.140594 177.398468 0.000000
245.320282 202.500000 7.382790
226.554565 176.899948 9.274680
243.000000 202.500000 0.000000
251.437500 202.500000 12.656250
241.593750 171.597687 21.199230
270.000000 202.500000 16.875000
213.969681 78.211708 30.169350
153.000000 52.101540 33.412498
237.656250 121.447258 23.034420
217.265579 69.609421 0.000000
153.000000 40.500000 0.000000
241.875000 116.437508 0.000000
252.905319 167.609604 15.899400
288.562500 202.500000 12.656250
258.046906 165.796921 0.000000
294.679718 202.500000 7.382790
256.632935 166.295334 9.274680
297.000000 202.500000 0.000000
213.969681 78.211708 -30.169350
153.000000 52.101540 -33.412498
237.656250 121.447258 -23.034420
206.718750 97.136726 -40.225769
153.000000 77.625000 -44.549999
228.374985 132.468750 -30.712500
252.905319 167.609604 -15.899400
294.679718 202.500000 -7.382790
256.632935 166.295334 -9.274680
288.562500 202.500000 -12.656250
241.593750 171.597687 -21.199230
270.000000 202.500000 -16.875000
199.467819 116.061745 -30.169350
153.000000 103.148460 -33.412498
219.093750 143.490250 -23.034420
230.282196 175.585678 -15.899400
251.437500 202.500000 -12.656250
245.320282 202.500000 -7.382790
226.554565 176.899948 -9.274680
256.582336 207.644135 5.906250
254.250000 207.562515 0.000000
262.731415 207.859146 10.125000
278.384766 206.890106 15.820290
258.505005 206.482330 11.865240
281.390594 208.511734 13.500001
298.264496 207.298004 11.865240
300.107605 208.622604 11.054430
280.579865 208.061829 14.739301
300.311462 208.994492 10.597140
281.160706 208.378891 14.129550
300.049835 209.164322 10.125000
304.815796 207.432449 6.921360
307.300781 207.483398 0.000000
306.542877 208.807465 6.448410
308.983856 208.877579 0.000000
306.622437 209.197342 6.181650
309.065765 209.101776 0.000000
306.646454 209.027954 6.316650
309.016266 209.274292 0.000000
306.198822 209.379333 5.906250
308.531250 209.460953 0.000000
257.654449 207.328949 5.364090
255.480469 207.246048 0.000000
263.385803 207.547379 9.195570
280.777588 208.210144 12.260700
257.794006 206.929443 5.114610
255.713318 206.850601 0.000000
257.636597 206.368286 4.891140
255.656250 206.296921 0.000000
263.279449 207.137436 8.767890
262.857758 206.556488 8.384760
278.701202 207.127426 11.179710
253.546921 202.500000 4.429710
252.000000 202.500000 0.000000
257.625000 202.500000 7.593750
270.000000 202.500000 10.125000
298.169373 208.872910 9.195570
294.544525 207.698486 8.384760
282.375000 202.500000 7.593750
286.453064 202.500000 4.429710
288.000000 202.500000 0.000000
304.815796 207.432449 -6.921360
298.264496 207.298004 -11.865240
306.542877 208.807465 -6.448410
300.107605 208.622604 -11.054430
306.646454 209.027954 -6.316650
306.622437 209.197342 -6.181650
300.311462 208.994492 -10.597140
306.198822 209.379333 -5.906250
300.049835 209.164322 -10.125000
278.384766 206.890106 -15.820290
280.579865 208.061829 -14.739301
281.160706 208.378891 -14.129550
281.390594 208.511734 -13.500001
258.505005 206.482330 -11.865240
262.731415 207.859146 -10.125000
256.582336 207.644135 -5.906250
286.453064 202.500000 -4.429710
282.375000 202.500000 -7.593750
280.777588 208.210144 -12.260700
298.169373 208.872910 -9.195570
278.701202 207.127426 -11.179710
294.544525 207.698486 -8.384760
270.000000 202.500000 -10.125000
263.385803 207.547379 -9.195570
257.654449 207.328949 -5.364090
262.857758 206.556488 -8.384760
257.794006 206.929443 -5.114610
263.279449 207.137436 -8.767890
257.636597 206.368286 -4.891140
257.625000 202.500000 -7.593750
253.546921 202.500000 -4.429710
28.301760 265.570312 12.096630
0.025290 270.000000 0.075960
0.000000 270.000000 0.000000
30.656248 265.570312 0.000000
25.523010 265.570312 17.310869
0.047430 270.000000 0.079110
21.822929 265.570312 21.822929
0.067500 270.000000 0.067500
23.093910 263.325775 23.093910
32.453640 263.325775 0.000000
23.184900 260.745117 23.184900
32.589809 260.745117 0.000000
20.801250 254.812500 20.801250
29.249998 254.812500 0.000000
12.590820 241.523453 12.590820
17.718750 241.523453 0.000000
10.661221 235.116180 10.661221
15.011730 235.116180 0.000000
12.780001 229.500000 12.780001
18.000000 229.500000 0.000000
17.310869 265.570312 25.523010
0.079110 270.000000 0.047430
12.096630 265.570312 28.301760
0.075960 270.000000 0.025290
0.000000 265.570312 30.656248
0.000000 263.325775 32.453640
0.000000 260.745117 32.589809
0.000000 254.812500 29.249998
0.000000 241.523453 17.718750
0.000000 235.116180 15.011730
0.000000 229.500000 18.000000
-12.096630 265.570312 28.301760
-0.075960 270.000000 0.025290
-17.310869 265.570312 25.523010
-0.079110 270.000000 0.047430
-21.822929 265.570312 21.822929
-0.067500 270.000000 0.067500
-23.093910 263.325775 23.093910
-23.184900 260.745117 23.184900
-20.801250 254.812500 20.801250
-12.590820 241.523453 12.590820
-10.661221 235.116180 10.661221
-12.780001 229.500000 12.780001
-25.523010 265.570312 17.310869
-0.047430 270.000000 0.079110
-28.301760 265.570312 12.096630
-0.025290 270.000000 0.075960
-30.656248 265.570312 0.000000
-32.453640 263.325775 0.000000
-32.589809 260.745117 0.000000
-29.249998 254.812500 0.000000
-17.718750 241.523453 0.000000
-15.011730 235.116180 0.000000
-18.000000 229.500000 0.000000
-28.301760 265.570312 -12.096630
-0.025290 270.000000 -0.075960
-25.523010 265.570312 -17.310869
-0.047430 270.000000 -0.079110
-21.822929 265.570312 -21.822929
-0.067500 270.000000 -0.067500
-23.093910 263.325775 -23.093910
-23.184900 260.745117 -23.184900
-20.801250 254.812500 -20.801250
-12.590820 241.523453 -12.590820
-10.661221 235.116180 -10.661221
-12.780001 229.500000 -12.780001
-17.310869 265.570312 -25.523010
-0.079110 270.000000 -0.047430
-12.096630 265.570312 -28.301760
-0.075960 270.000000 -0.025290
0.000000 265.570312 -30.656248
0.000000 263.325775 -32.453640
0.000000 260.745117 -32.589809
0.000000 254.812500 -29.249998
0.000000 241.523453 -17.718750
0.000000 235.116180 -15.011730
0.000000 229.500000 -18.000000
12.096630 265.570312 -28.301760
0.075960 270.000000 -0.025290
17.310869 265.570312 -25.523010
0.079110 270.000000 -0.047430
21.822929 265.570312 -21.822929
0.067500 270.000000 -0.067500
23.093910 263.325775 -23.093910
23.184900 260.745117 -23.184900
20.801250 254.812500 -20.801250
12.590820 241.523453 -12.590820
10.661221 235.116180 -10.661221
12.780001 229.500000 -12.780001
25.523010 265.570312 -17.310869
0.047430 270.000000 -0.079110
28.301760 265.570312 -12.096630
0.025290 270.000000 -0.075960
52.717499 216.000015 52.717499
74.250000 216.000015 0.000000
73.884422 210.515671 73.884422
104.062500 210.515671 0.000000
80.573936 206.982437 80.573936
113.484329 206.982437 0.000000
83.070000 202.500000 83.070000
116.999992 202.500000 0.000000
0.000000 216.000015 74.250000
0.000000 210.515671 104.062500
0.000000 206.982437 113.484329
0.000000 202.500000 116.999992
-52.717499 216.000015 52.717499
-73.884422 210.515671 73.884422
-80.573936 206.982437 80.573936
-83.070000 202.500000 83.070000
-74.250000 216.000015 0.000000
-104.062500 210.515671 0.000000
-113.484329 206.982437 0.000000
-116.999992 202.500000 0.000000
-52.717499 216.000015 -52.717499
-73.884422 210.515671 -73.884422
-80.573936 206.982437 -80.573936
-83.070000 202.500000 -83.070000
0.000000 216.000015 -74.250000
0.000000 210.515671 -104.062500
0.000000 206.982437 -113.484329
0.000000 202.500000 -116.999992
52.717499 216.000015 -52.717499
73.884422 210.515671 -73.884422
80.573936 206.982437 -80.573936
83.070000 202.500000 -83.070000
3 0 1 2
3 2 3 0
3 4 5 1
3 1 0 4
3 6 0 3
3 3 7 6
3 8 6 7
3 7 9 8
3 10 4 0
3 0 6 10
3 11 10 6
3 6 8 11
3 12 8 9
3 9 13 12
3 14 11 8
3 8 12 14
3 15 16 5
3 5 4 15
3 17 18 16
3 16 15 17
3 19 15 4
3 4 10 19
3 20 19 10
3 10 11 20
3 21 17 15
3 15 19 21
3 22 21 19
3 19 20 22
3 23 20 11
3 11 14 23
3 24 22 20
3 20 23 24
3 25 26 18
3 18 17 25
3 27 28 26
3 26 25 27
3 29 25 17
3 17 21 29
3 30 29 21
3 21 22 30
3 31 27 25
3 25 29 31
3 32 31 29
3 29 30 32
3 33 30 22
3 22 24 33
3 34 32 30
3 30 33 34
3 35 36 28
3 28 27 35
3 3 2 36
3 36 35 3
3 37 35 27
3 27 31 37
3 38 37 31
3 31 32 38
3 7 3 35
3 35 37 7
3 9 7 37
3 37 38 9
3 39 38 32
3 32 34 39
3 13 9 38
3 38 39 13
3 40 12 13
3 13 41 40
3 42 14 12
3 12 40 42
3 43 23 14
3 14 42 43
3 44 24 23
3 23 43 44
3 45 33 24
3 24 44 45
3 46 34 33
3 33 45 46
3 47 39 34
3 34 46 47
3 41 13 39
3 39 47 41
3 48 40 41
3 41 49 48
3 50 48 49
3 49 51 50
3 52 42 40
3 40 48 52
3 53 52 48
3 48 50 53
3 54 43 42
3 42 52 54
3 55 54 52
3 52 53 55
3 56 44 43
3 43 54 56
3 57 56 54
3 54 55 57
3 58 45 44
3 44 56 58
3 59 58 56
3 56 57 59
3 60 46 45
3 45 58 60
3 61 60 58
3 58 59 61
3 62 47 46
3 46 60 62
3 63 62 60
3 60 61 63
3 49 41 47
3 47 62 49
3 51 49 62
3 62 63 51
3 64 65 66
3 66 67 64
3 68 64 67
3 67 69 68
3 70 68 69
3 69 71 70
3 72 73 65
3 65 64 72
3 74 72 64
3 64 68 74
3 75 74 68
3 68 70 75
3 76 77 73
3 73 72 76
3 78 79 77
3 77 76 78
3 80 76 72
3 72 74 80
3 81 80 74
3 74 75 81
3 82 78 76
3 76 80 82
3 83 82 80
3 80 81 83
3 84 85 79
3 79 78 84
3 86 87 85
3 85 84 86
3 88 84 78
3 78 82 88
3 89 88 82
3 82 83 89
3 90 86 84
3 84 88 90
3 91 90 88
3 88 89 91
3 92 93 87
3 87 86 92
3 94 92 86
3 86 90 94
3 95 94 90
3 90 91 95
3 67 66 93
3 93 92 67
3 69 67 92
3 92 94 69
3 71 69 94
3 94 95 71
3 96 70 71
3 71 97 96
3 98 96 97
3 97 44 98
3 99 75 70
3 70 96 99
3 100 99 96
3 96 98 100
3 101 81 75
3 75 99 101
3 102 101 99
3 99 100 102
3 103 83 81
3 81 101 103
3 104 103 101
3 101 102 104
3 105 89 83
3 83 103 105
3 106 105 103
3 103 104 106
3 107 91 89
3 89 105 107
3 108 107 105
3 105 106 108
3 109 95 91
3 91 107 109
3 110 109 107
3 107 108 110
3 97 71 95
3 95 109 97
3 44 97 109
3 109 110 44
3 111 112 113
3 113 114 111
3 115 111 114
3 114 116 115
3 117 118 112
3 112 111 117
3 119 117 111
3 111 115 119
3 120 115 116
3 116 121 120
3 122 123 121
3 121 124 122
3 125 120 123
3 123 122 125
3 126 119 115
3 115 120 126
3 127 126 120
3 120 125 127
3 128 129 118
3 118 117 128
3 130 128 117
3 117 119 130
3 131 132 129
3 129 128 131
3 133 131 128
3 128 130 133
3 134 130 119
3 119 126 134
3 135 134 126
3 126 127 135
3 136 133 130
3 130 134 136
3 137 138 134
3 134 135 137
3 139 136 138
3 138 137 139
3 140 141 132
3 132 131 140
3 142 140 131
3 131 133 142
3 143 144 141
3 141 140 143
3 145 143 140
3 140 142 145
3 146 142 133
3 133 136 146
3 147 148 136
3 136 139 147
3 149 146 148
3 148 147 149
3 150 145 142
3 142 146 150
3 151 150 146
3 146 149 151
3 152 153 144
3 144 143 152
3 154 152 143
3 143 145 154
3 114 113 153
3 153 152 114
3 116 114 152
3 152 154 116
3 155 154 145
3 145 150 155
3 156 155 150
3 150 151 156
3 121 116 154
3 154 155 121
3 157 158 155
3 155 156 157
3 124 121 158
3 158 157 124
3 159 122 124
3 124 160 159
3 161 125 122
3 122 159 161
3 162 127 125
3 125 163 162
3 164 162 163
3 163 161 164
3 165 135 127
3 127 162 165
3 166 165 162
3 162 167 166
3 168 166 167
3 167 169 168
3 170 168 169
3 169 164 170
3 171 137 135
3 135 165 171
3 172 139 137
3 137 171 172
3 173 171 165
3 165 166 173
3 174 172 171
3 171 173 174
3 175 173 166
3 166 168 175
3 176 174 173
3 173 177 176
3 178 176 177
3 177 175 178
3 179 175 168
3 168 170 179
3 180 178 175
3 175 179 180
3 181 159 160
3 160 182 181
3 183 161 159
3 159 181 183
3 184 164 161
3 161 183 184
3 185 181 182
3 182 186 185
3 187 185 186
3 186 188 187
3 189 183 181
3 181 185 189
3 190 189 185
3 185 187 190
3 191 184 183
3 183 190 191
3 192 187 188
3 188 193 192
3 194 190 187
3 187 192 194
3 195 191 190
3 190 194 195
3 196 170 164
3 164 184 196
3 197 196 184
3 184 191 197
3 198 197 191
3 191 195 198
3 199 179 170
3 170 198 199
3 200 180 179
3 179 199 200
3 201 147 139
3 139 172 201
3 202 149 147
3 147 201 202
3 203 201 172
3 172 174 203
3 204 202 201
3 201 203 204
3 205 203 174
3 174 176 205
3 206 205 176
3 176 178 206
3 207 204 203
3 203 206 207
3 208 206 178
3 178 180 208
3 209 207 206
3 206 208 209
3 210 151 149
3 149 202 210
3 211 210 202
3 202 204 211
3 212 211 204
3 204 207 212
3 213 212 207
3 207 209 213
3 214 156 151
3 151 210 214
3 215 214 210
3 210 213 215
3 216 157 156
3 156 215 216
3 160 124 157
3 157 216 160
3 217 208 180
3 180 200 217
3 218 209 208
3 208 217 218
3 219 213 209
3 209 220 219
3 221 219 220
3 220 222 221
3 223 221 222
3 222 218 223
3 224 215 213
3 213 219 224
3 225 216 215
3 215 224 225
3 182 160 216
3 216 225 182
3 226 224 219
3 219 221 226
3 227 225 224
3 224 228 227
3 229 227 228
3 228 226 229
3 186 182 225
3 225 227 186
3 188 186 227
3 227 229 188
3 230 226 221
3 221 223 230
3 231 229 226
3 226 230 231
3 193 188 229
3 229 231 193
3 232 233 234
3 234 235 232
3 236 237 233
3 233 232 236
3 238 239 237
3 237 236 238
3 240 238 235
3 235 241 240
3 242 240 241
3 241 243 242
3 244 242 243
3 243 245 244
3 246 244 245
3 245 247 246
3 248 246 247
3 247 249 248
3 250 248 249
3 249 251 250
3 252 253 239
3 239 238 252
3 254 255 253
3 253 252 254
3 256 234 255
3 255 254 256
3 257 256 238
3 238 240 257
3 258 257 240
3 240 242 258
3 259 258 242
3 242 244 259
3 260 259 244
3 244 246 260
3 261 260 246
3 246 248 261
3 262 261 248
3 248 250 262
3 263 264 234
3 234 256 263
3 265 266 264
3 264 263 265
3 267 268 266
3 266 265 267
3 269 267 256
3 256 257 269
3 270 269 257
3 257 258 270
3 271 270 258
3 258 259 271
3 272 271 259
3 259 260 272
3 273 272 260
3 260 261 273
3 274 273 261
3 261 262 274
3 275 276 268
3 268 267 275
3 277 278 276
3 276 275 277
3 279 234 278
3 278 277 279
3 280 279 267
3 267 269 280
3 281 280 269
3 269 270 281
3 282 281 270
3 270 271 282
3 283 282 271
3 271 272 283
3 284 283 272
3 272 273 284
3 285 284 273
3 273 274 285
3 286 287 234
3 234 279 286
3 288 289 287
3 287 286 288
3 290 291 289
3 289 288 290
3 292 290 279
3 279 280 292
3 293 292 280
3 280 281 293
3 294 293 281
3 281 282 294
3 295 294 282
3 282 283 295
3 296 295 283
3 283 284 296
3 297 296 284
3 284 285 297
3 298 299 291
3 291 290 298
3 300 301 299
3 299 298 300
3 302 234 301
3 301 300 302
3 303 302 290
3 290 292 303
3 304 303 292
3 292 293 304
3 305 304 293
3 293 294 305
3 306 305 294
3 294 295 306
3 307 306 295
3 295 296 307
3 308 307 296
3 296 297 308
3 309 310 234
3 234 302 309
3 311 312 310
3 310 309 311
3 313 314 312
3 312 311 313
3 315 313 302
3 302 303 315
3 316 315 303
3 303 304 316
3 317 316 304
3 304 305 317
3 318 317 305
3 305 306 318
3 319 318 306
3 306 307 319
3 320 319 307
3 307 308 320
3 321 322 314
3 314 313 321
3 323 324 322
3 322 321 323
3 235 234 324
3 324 323 235
3 241 235 313
3 313 315 241
3 243 241 315
3 315 316 243
3 245 243 316
3 316 317 245
3 247 245 317
3 317 318 247
3 249 247 318
3 318 319 249
3 251 249 319
3 319 320 251
3 325 250 251
3 251 326 325
3 327 325 326
3 326 328 327
3 329 327 328
3 328 330 329
3 331 329 330
3 330 332 331
3 333 262 250
3 250 325 333
3 334 333 325
3 325 327 334
3 335 334 327
3 327 329 335
3 336 335 329
3 329 331 336
3 337 274 262
3 262 333 337
3 338 337 333
3 333 334 338
3 339 338 334
3 334 335 339
3 340 339 335
3 335 336 340
3 341 285 274
3 274 337 341
3 342 341 337
3 337 338 342
3 343 342 338
3 338 339 343
3 344 343 339
3 339 340 344
3 345 297 285
3 285 341 345
3 346 345 341
3 341 342 346
3 347 346 342
3 342 343 347
3 348 347 343
3 343 344 348
3 349 308 297
3 297 345 349
3 350 349 345
3 345 346 350
3 351 350 346
3 346 347 351
3 352 351 347
3 347 348 352
3 353 320 308
3 308 349 353
3 354 353 349
3 349 350 354
3 355 354 350
3 350 351 355
3 356 355 351
3 351 352 356
3 326 251 320
3 320 353 326
3 328 326 353
3 353 354 328
3 330 328 354
3 354 355 330
3 332 330 355
3 355 356 332
